<?xml version="1.0" encoding="UTF-8" standalone="no"?><svg xmlns="http://www.w3.org/2000/svg" xmlns:xlink="http://www.w3.org/1999/xlink" contentStyleType="text/css" height="1218px" preserveAspectRatio="none" style="width:1965px;height:1218px;background:#FFFFFF;" version="1.1" viewBox="0 0 1965 1218" width="1965px" zoomAndPan="magnify"><defs/><g><rect fill="#FFFFFF" height="1018.9844" style="stroke:#181818;stroke-width:1.0;" width="10" x="645.5" y="154.8281"/><rect fill="#FFFFFF" height="972.8516" style="stroke:#181818;stroke-width:1.0;" width="10" x="650.5" y="191.9609"/><rect fill="#FFFFFF" height="338.3281" style="stroke:#181818;stroke-width:1.0;" width="10" x="655.5" y="790.3516"/><rect fill="#FFFFFF" height="332.3281" style="stroke:#181818;stroke-width:1.0;" width="10" x="732.5" y="226.0938"/><rect fill="#FFFFFF" height="259.0625" style="stroke:#181818;stroke-width:1.0;" width="10" x="737.5" y="263.2266"/><rect fill="#FFFFFF" height="189.7969" style="stroke:#181818;stroke-width:1.0;" width="10" x="859.5" y="297.3594"/><rect fill="#FFFFFF" height="173.6641" style="stroke:#181818;stroke-width:1.0;" width="10" x="1309.5" y="587.5547"/><rect fill="#FFFFFF" height="100.3984" style="stroke:#181818;stroke-width:1.0;" width="10" x="1314.5" y="624.6875"/><rect fill="#FFFFFF" height="191.6641" style="stroke:#181818;stroke-width:1.0;" width="10" x="1651" y="872.75"/><rect fill="none" height="46.2656" style="stroke:#000000;stroke-width:1.5;" width="285" x="807.5" y="412.7578"/><rect fill="none" height="46.2656" style="stroke:#000000;stroke-width:1.5;" width="720.5" x="684.5" y="644.6875"/><rect fill="none" height="230.9297" style="stroke:#000000;stroke-width:1.5;" width="563.5" x="1395.5" y="805.3516"/><line style="stroke:#181818;stroke-width:0.5;stroke-dasharray:5.0,5.0;" x1="28" x2="28" y1="36.2969" y2="1182.8125"/><line style="stroke:#181818;stroke-width:0.5;stroke-dasharray:5.0,5.0;" x1="140" x2="140" y1="36.2969" y2="1182.8125"/><line style="stroke:#181818;stroke-width:0.5;stroke-dasharray:5.0,5.0;" x1="314" x2="314" y1="36.2969" y2="1182.8125"/><line style="stroke:#181818;stroke-width:0.5;stroke-dasharray:5.0,5.0;" x1="505" x2="505" y1="36.2969" y2="1182.8125"/><line style="stroke:#181818;stroke-width:0.5;stroke-dasharray:5.0,5.0;" x1="650" x2="650" y1="36.2969" y2="1182.8125"/><line style="stroke:#181818;stroke-width:0.5;stroke-dasharray:5.0,5.0;" x1="737.5" x2="737.5" y1="36.2969" y2="1182.8125"/><line style="stroke:#181818;stroke-width:0.5;stroke-dasharray:5.0,5.0;" x1="864.5" x2="864.5" y1="36.2969" y2="1182.8125"/><line style="stroke:#181818;stroke-width:0.5;stroke-dasharray:5.0,5.0;" x1="1001.5" x2="1001.5" y1="36.2969" y2="1182.8125"/><line style="stroke:#181818;stroke-width:0.5;stroke-dasharray:5.0,5.0;" x1="1173" x2="1173" y1="36.2969" y2="1182.8125"/><line style="stroke:#181818;stroke-width:0.5;stroke-dasharray:5.0,5.0;" x1="1314" x2="1314" y1="36.2969" y2="1182.8125"/><line style="stroke:#181818;stroke-width:0.5;stroke-dasharray:5.0,5.0;" x1="1438.5" x2="1438.5" y1="36.2969" y2="1182.8125"/><line style="stroke:#181818;stroke-width:0.5;stroke-dasharray:5.0,5.0;" x1="1558" x2="1558" y1="36.2969" y2="1182.8125"/><line style="stroke:#181818;stroke-width:0.5;stroke-dasharray:5.0,5.0;" x1="1656" x2="1656" y1="36.2969" y2="1182.8125"/><line style="stroke:#181818;stroke-width:0.5;stroke-dasharray:5.0,5.0;" x1="1882" x2="1882" y1="36.2969" y2="1182.8125"/><rect fill="#E2E2F0" height="30.2969" rx="2.5" ry="2.5" style="stroke:#181818;stroke-width:0.5;" width="46" x="5" y="5"/><text fill="#000000" font-family="sans-serif" font-size="14" lengthAdjust="spacing" textLength="32" x="12" y="24.9951">User</text><rect fill="#E2E2F0" height="30.2969" rx="2.5" ry="2.5" style="stroke:#181818;stroke-width:0.5;" width="46" x="5" y="1181.8125"/><text fill="#000000" font-family="sans-serif" font-size="14" lengthAdjust="spacing" textLength="32" x="12" y="1201.8076">User</text><rect fill="#E2E2F0" height="30.2969" rx="2.5" ry="2.5" style="stroke:#181818;stroke-width:0.5;" width="158" x="61" y="5"/><text fill="#000000" font-family="sans-serif" font-size="14" lengthAdjust="spacing" textLength="144" x="68" y="24.9951">TransactionBaseImpl</text><rect fill="#E2E2F0" height="30.2969" rx="2.5" ry="2.5" style="stroke:#181818;stroke-width:0.5;" width="158" x="61" y="1181.8125"/><text fill="#000000" font-family="sans-serif" font-size="14" lengthAdjust="spacing" textLength="144" x="68" y="1201.8076">TransactionBaseImpl</text><rect fill="#E2E2F0" height="30.2969" rx="2.5" ry="2.5" style="stroke:#181818;stroke-width:0.5;" width="156" x="236" y="5"/><text fill="#000000" font-family="sans-serif" font-size="14" lengthAdjust="spacing" textLength="142" x="243" y="24.9951">WriteBatchWithIndex</text><rect fill="#E2E2F0" height="30.2969" rx="2.5" ry="2.5" style="stroke:#181818;stroke-width:0.5;" width="156" x="236" y="1181.8125"/><text fill="#000000" font-family="sans-serif" font-size="14" lengthAdjust="spacing" textLength="142" x="243" y="1201.8076">WriteBatchWithIndex</text><rect fill="#E2E2F0" height="30.2969" rx="2.5" ry="2.5" style="stroke:#181818;stroke-width:0.5;" width="207" x="402" y="5"/><text fill="#000000" font-family="sans-serif" font-size="14" lengthAdjust="spacing" textLength="193" x="409" y="24.9951">WriteBatchWithIndexInternal</text><rect fill="#E2E2F0" height="30.2969" rx="2.5" ry="2.5" style="stroke:#181818;stroke-width:0.5;" width="207" x="402" y="1181.8125"/><text fill="#000000" font-family="sans-serif" font-size="14" lengthAdjust="spacing" textLength="193" x="409" y="1201.8076">WriteBatchWithIndexInternal</text><rect fill="#E2E2F0" height="30.2969" rx="2.5" ry="2.5" style="stroke:#181818;stroke-width:0.5;" width="63" x="619" y="5"/><text fill="#000000" font-family="sans-serif" font-size="14" lengthAdjust="spacing" textLength="49" x="626" y="24.9951">DBImpl</text><rect fill="#E2E2F0" height="30.2969" rx="2.5" ry="2.5" style="stroke:#181818;stroke-width:0.5;" width="63" x="619" y="1181.8125"/><text fill="#000000" font-family="sans-serif" font-size="14" lengthAdjust="spacing" textLength="49" x="626" y="1201.8076">DBImpl</text><rect fill="#E2E2F0" height="30.2969" rx="2.5" ry="2.5" style="stroke:#181818;stroke-width:0.5;" width="86" x="694.5" y="5"/><text fill="#000000" font-family="sans-serif" font-size="14" lengthAdjust="spacing" textLength="72" x="701.5" y="24.9951">MemTable</text><rect fill="#E2E2F0" height="30.2969" rx="2.5" ry="2.5" style="stroke:#181818;stroke-width:0.5;" width="86" x="694.5" y="1181.8125"/><text fill="#000000" font-family="sans-serif" font-size="14" lengthAdjust="spacing" textLength="72" x="701.5" y="1201.8076">MemTable</text><rect fill="#E2E2F0" height="30.2969" rx="2.5" ry="2.5" style="stroke:#181818;stroke-width:0.5;" width="94" x="817.5" y="5"/><text fill="#000000" font-family="sans-serif" font-size="14" lengthAdjust="spacing" textLength="80" x="824.5" y="24.9951">SkipListRep</text><rect fill="#E2E2F0" height="30.2969" rx="2.5" ry="2.5" style="stroke:#181818;stroke-width:0.5;" width="94" x="817.5" y="1181.8125"/><text fill="#000000" font-family="sans-serif" font-size="14" lengthAdjust="spacing" textLength="80" x="824.5" y="1201.8076">SkipListRep</text><rect fill="#E2E2F0" height="30.2969" rx="2.5" ry="2.5" style="stroke:#181818;stroke-width:0.5;" width="161" x="921.5" y="5"/><text fill="#000000" font-family="sans-serif" font-size="14" lengthAdjust="spacing" textLength="147" x="928.5" y="24.9951">InlineSkipList::Iterator</text><rect fill="#E2E2F0" height="30.2969" rx="2.5" ry="2.5" style="stroke:#181818;stroke-width:0.5;" width="161" x="921.5" y="1181.8125"/><text fill="#000000" font-family="sans-serif" font-size="14" lengthAdjust="spacing" textLength="147" x="928.5" y="1201.8076">InlineSkipList::Iterator</text><rect fill="#E2E2F0" height="30.2969" rx="2.5" ry="2.5" style="stroke:#181818;stroke-width:0.5;" width="102" x="1122" y="5"/><text fill="#000000" font-family="sans-serif" font-size="14" lengthAdjust="spacing" textLength="88" x="1129" y="24.9951">InlineSkipList</text><rect fill="#E2E2F0" height="30.2969" rx="2.5" ry="2.5" style="stroke:#181818;stroke-width:0.5;" width="102" x="1122" y="1181.8125"/><text fill="#000000" font-family="sans-serif" font-size="14" lengthAdjust="spacing" textLength="88" x="1129" y="1201.8076">InlineSkipList</text><rect fill="#E2E2F0" height="30.2969" rx="2.5" ry="2.5" style="stroke:#181818;stroke-width:0.5;" width="161" x="1234" y="5"/><text fill="#000000" font-family="sans-serif" font-size="14" lengthAdjust="spacing" textLength="147" x="1241" y="24.9951">MemTableListVersion</text><rect fill="#E2E2F0" height="30.2969" rx="2.5" ry="2.5" style="stroke:#181818;stroke-width:0.5;" width="161" x="1234" y="1181.8125"/><text fill="#000000" font-family="sans-serif" font-size="14" lengthAdjust="spacing" textLength="147" x="1241" y="1201.8076">MemTableListVersion</text><rect fill="#E2E2F0" height="30.2969" rx="2.5" ry="2.5" style="stroke:#181818;stroke-width:0.5;" width="66" x="1405.5" y="5"/><text fill="#000000" font-family="sans-serif" font-size="14" lengthAdjust="spacing" textLength="52" x="1412.5" y="24.9951">Version</text><rect fill="#E2E2F0" height="30.2969" rx="2.5" ry="2.5" style="stroke:#181818;stroke-width:0.5;" width="66" x="1405.5" y="1181.8125"/><text fill="#000000" font-family="sans-serif" font-size="14" lengthAdjust="spacing" textLength="52" x="1412.5" y="1201.8076">Version</text><rect fill="#E2E2F0" height="30.2969" rx="2.5" ry="2.5" style="stroke:#181818;stroke-width:0.5;" width="79" x="1519" y="5"/><text fill="#000000" font-family="sans-serif" font-size="14" lengthAdjust="spacing" textLength="65" x="1526" y="24.9951">FilePicker</text><rect fill="#E2E2F0" height="30.2969" rx="2.5" ry="2.5" style="stroke:#181818;stroke-width:0.5;" width="79" x="1519" y="1181.8125"/><text fill="#000000" font-family="sans-serif" font-size="14" lengthAdjust="spacing" textLength="65" x="1526" y="1201.8076">FilePicker</text><rect fill="#E2E2F0" height="30.2969" rx="2.5" ry="2.5" style="stroke:#181818;stroke-width:0.5;" width="96" x="1608" y="5"/><text fill="#000000" font-family="sans-serif" font-size="14" lengthAdjust="spacing" textLength="82" x="1615" y="24.9951">TableCache</text><rect fill="#E2E2F0" height="30.2969" rx="2.5" ry="2.5" style="stroke:#181818;stroke-width:0.5;" width="96" x="1608" y="1181.8125"/><text fill="#000000" font-family="sans-serif" font-size="14" lengthAdjust="spacing" textLength="82" x="1615" y="1201.8076">TableCache</text><rect fill="#E2E2F0" height="30.2969" rx="2.5" ry="2.5" style="stroke:#181818;stroke-width:0.5;" width="134" x="1815" y="5"/><text fill="#000000" font-family="sans-serif" font-size="14" lengthAdjust="spacing" textLength="120" x="1822" y="24.9951">BlockBasedTable</text><rect fill="#E2E2F0" height="30.2969" rx="2.5" ry="2.5" style="stroke:#181818;stroke-width:0.5;" width="134" x="1815" y="1181.8125"/><text fill="#000000" font-family="sans-serif" font-size="14" lengthAdjust="spacing" textLength="120" x="1822" y="1201.8076">BlockBasedTable</text><rect fill="#FFFFFF" height="1018.9844" style="stroke:#181818;stroke-width:1.0;" width="10" x="645.5" y="154.8281"/><rect fill="#FFFFFF" height="972.8516" style="stroke:#181818;stroke-width:1.0;" width="10" x="650.5" y="191.9609"/><rect fill="#FFFFFF" height="338.3281" style="stroke:#181818;stroke-width:1.0;" width="10" x="655.5" y="790.3516"/><rect fill="#FFFFFF" height="332.3281" style="stroke:#181818;stroke-width:1.0;" width="10" x="732.5" y="226.0938"/><rect fill="#FFFFFF" height="259.0625" style="stroke:#181818;stroke-width:1.0;" width="10" x="737.5" y="263.2266"/><rect fill="#FFFFFF" height="189.7969" style="stroke:#181818;stroke-width:1.0;" width="10" x="859.5" y="297.3594"/><rect fill="#FFFFFF" height="173.6641" style="stroke:#181818;stroke-width:1.0;" width="10" x="1309.5" y="587.5547"/><rect fill="#FFFFFF" height="100.3984" style="stroke:#181818;stroke-width:1.0;" width="10" x="1314.5" y="624.6875"/><rect fill="#FFFFFF" height="191.6641" style="stroke:#181818;stroke-width:1.0;" width="10" x="1651" y="872.75"/><polygon fill="#181818" points="128,63.4297,138,67.4297,128,71.4297,132,67.4297" style="stroke:#181818;stroke-width:1.0;"/><line style="stroke:#181818;stroke-width:1.0;" x1="28" x2="134" y1="67.4297" y2="67.4297"/><text fill="#000000" font-family="sans-serif" font-size="13" font-weight="bold" lengthAdjust="spacing" textLength="9" x="35" y="62.3638">1</text><text fill="#000000" font-family="sans-serif" font-size="13" lengthAdjust="spacing" textLength="23" x="48" y="62.3638">Get</text><polygon fill="#181818" points="302,92.5625,312,96.5625,302,100.5625,306,96.5625" style="stroke:#181818;stroke-width:1.0;"/><line style="stroke:#181818;stroke-width:1.0;" x1="140" x2="308" y1="96.5625" y2="96.5625"/><text fill="#000000" font-family="sans-serif" font-size="13" font-weight="bold" lengthAdjust="spacing" textLength="9" x="147" y="91.4966">2</text><text fill="#000000" font-family="sans-serif" font-size="13" lengthAdjust="spacing" textLength="137" x="160" y="91.4966">GetFromBatchAndDB</text><polygon fill="#181818" points="493.5,121.6953,503.5,125.6953,493.5,129.6953,497.5,125.6953" style="stroke:#181818;stroke-width:1.0;"/><line style="stroke:#181818;stroke-width:1.0;" x1="314" x2="499.5" y1="125.6953" y2="125.6953"/><text fill="#000000" font-family="sans-serif" font-size="13" font-weight="bold" lengthAdjust="spacing" textLength="9" x="321" y="120.6294">3</text><text fill="#000000" font-family="sans-serif" font-size="13" lengthAdjust="spacing" textLength="93" x="334" y="120.6294">GetFromBatch</text><polygon fill="#181818" points="633.5,150.8281,643.5,154.8281,633.5,158.8281,637.5,154.8281" style="stroke:#181818;stroke-width:1.0;"/><line style="stroke:#181818;stroke-width:1.0;" x1="314" x2="639.5" y1="154.8281" y2="154.8281"/><text fill="#000000" font-family="sans-serif" font-size="13" font-weight="bold" lengthAdjust="spacing" textLength="9" x="321" y="149.7622">4</text><text fill="#000000" font-family="sans-serif" font-size="13" lengthAdjust="spacing" textLength="23" x="334" y="149.7622">Get</text><line style="stroke:#181818;stroke-width:1.0;" x1="655.5" x2="702.5" y1="178.9609" y2="178.9609"/><line style="stroke:#181818;stroke-width:1.0;" x1="702.5" x2="702.5" y1="178.9609" y2="191.9609"/><line style="stroke:#181818;stroke-width:1.0;" x1="661.5" x2="702.5" y1="191.9609" y2="191.9609"/><polygon fill="#181818" points="671.5,187.9609,661.5,191.9609,671.5,195.9609,667.5,191.9609" style="stroke:#181818;stroke-width:1.0;"/><text fill="#000000" font-family="sans-serif" font-size="13" font-weight="bold" lengthAdjust="spacing" textLength="9" x="667.5" y="173.895">5</text><text fill="#000000" font-family="sans-serif" font-size="13" lengthAdjust="spacing" textLength="50" x="680.5" y="173.895">GetImpl</text><polygon fill="#181818" points="720.5,222.0938,730.5,226.0938,720.5,230.0938,724.5,226.0938" style="stroke:#181818;stroke-width:1.0;"/><line style="stroke:#181818;stroke-width:1.0;" x1="660.5" x2="726.5" y1="226.0938" y2="226.0938"/><text fill="#000000" font-family="sans-serif" font-size="13" font-weight="bold" lengthAdjust="spacing" textLength="9" x="667.5" y="221.0278">6</text><text fill="#000000" font-family="sans-serif" font-size="13" lengthAdjust="spacing" textLength="23" x="680.5" y="221.0278">Get</text><line style="stroke:#181818;stroke-width:1.0;" x1="742.5" x2="789.5" y1="250.2266" y2="250.2266"/><line style="stroke:#181818;stroke-width:1.0;" x1="789.5" x2="789.5" y1="250.2266" y2="263.2266"/><line style="stroke:#181818;stroke-width:1.0;" x1="748.5" x2="789.5" y1="263.2266" y2="263.2266"/><polygon fill="#181818" points="758.5,259.2266,748.5,263.2266,758.5,267.2266,754.5,263.2266" style="stroke:#181818;stroke-width:1.0;"/><text fill="#000000" font-family="sans-serif" font-size="13" font-weight="bold" lengthAdjust="spacing" textLength="9" x="754.5" y="245.1606">7</text><text fill="#000000" font-family="sans-serif" font-size="13" lengthAdjust="spacing" textLength="90" x="767.5" y="245.1606">GetFromTable</text><polygon fill="#181818" points="847.5,293.3594,857.5,297.3594,847.5,301.3594,851.5,297.3594" style="stroke:#181818;stroke-width:1.0;"/><line style="stroke:#181818;stroke-width:1.0;" x1="747.5" x2="853.5" y1="297.3594" y2="297.3594"/><text fill="#000000" font-family="sans-serif" font-size="13" font-weight="bold" lengthAdjust="spacing" textLength="9" x="754.5" y="292.2935">8</text><text fill="#000000" font-family="sans-serif" font-size="13" lengthAdjust="spacing" textLength="23" x="767.5" y="292.2935">Get</text><polygon fill="#181818" points="990,322.4922,1000,326.4922,990,330.4922,994,326.4922" style="stroke:#181818;stroke-width:1.0;"/><line style="stroke:#181818;stroke-width:1.0;" x1="869.5" x2="996" y1="326.4922" y2="326.4922"/><text fill="#000000" font-family="sans-serif" font-size="13" font-weight="bold" lengthAdjust="spacing" textLength="9" x="876.5" y="321.4263">9</text><text fill="#000000" font-family="sans-serif" font-size="13" lengthAdjust="spacing" textLength="32" x="889.5" y="321.4263">Seek</text><polygon fill="#181818" points="1161,351.625,1171,355.625,1161,359.625,1165,355.625" style="stroke:#181818;stroke-width:1.0;"/><line style="stroke:#181818;stroke-width:1.0;" x1="1002" x2="1167" y1="355.625" y2="355.625"/><text fill="#000000" font-family="sans-serif" font-size="13" font-weight="bold" lengthAdjust="spacing" textLength="18" x="1009" y="350.5591">10</text><text fill="#000000" font-family="sans-serif" font-size="13" lengthAdjust="spacing" textLength="125" x="1031" y="350.5591">FindGreaterOrEqual</text><line style="stroke:#181818;stroke-width:1.0;" x1="869.5" x2="911.5" y1="384.7578" y2="384.7578"/><line style="stroke:#181818;stroke-width:1.0;" x1="911.5" x2="911.5" y1="384.7578" y2="397.7578"/><line style="stroke:#181818;stroke-width:1.0;" x1="870.5" x2="911.5" y1="397.7578" y2="397.7578"/><polygon fill="#181818" points="880.5,393.7578,870.5,397.7578,880.5,401.7578,876.5,397.7578" style="stroke:#181818;stroke-width:1.0;"/><text fill="#000000" font-family="sans-serif" font-size="13" font-weight="bold" lengthAdjust="spacing" textLength="18" x="876.5" y="379.6919">11</text><text fill="#000000" font-family="sans-serif" font-size="13" lengthAdjust="spacing" textLength="68" x="898.5" y="379.6919">SaveValue</text><path d="M807.5,412.7578 L884.5,412.7578 L884.5,419.8906 L874.5,429.8906 L807.5,429.8906 L807.5,412.7578 " fill="#EEEEEE" style="stroke:#000000;stroke-width:1.5;"/><rect fill="none" height="46.2656" style="stroke:#000000;stroke-width:1.5;" width="285" x="807.5" y="412.7578"/><text fill="#000000" font-family="sans-serif" font-size="13" font-weight="bold" lengthAdjust="spacing" textLength="32" x="822.5" y="425.8247">loop</text><polygon fill="#181818" points="990,447.0234,1000,451.0234,990,455.0234,994,451.0234" style="stroke:#181818;stroke-width:1.0;"/><line style="stroke:#181818;stroke-width:1.0;" x1="869.5" x2="996" y1="451.0234" y2="451.0234"/><text fill="#000000" font-family="sans-serif" font-size="13" font-weight="bold" lengthAdjust="spacing" textLength="18" x="876.5" y="445.9575">12</text><text fill="#000000" font-family="sans-serif" font-size="13" lengthAdjust="spacing" textLength="30" x="898.5" y="445.9575">Next</text><polygon fill="#181818" points="758.5,483.1563,748.5,487.1563,758.5,491.1563,754.5,487.1563" style="stroke:#181818;stroke-width:1.0;"/><line style="stroke:#181818;stroke-width:1.0;stroke-dasharray:2.0,2.0;" x1="752.5" x2="863.5" y1="487.1563" y2="487.1563"/><text fill="#000000" font-family="sans-serif" font-size="13" font-weight="bold" lengthAdjust="spacing" textLength="18" x="764.5" y="482.0903">13</text><text fill="#000000" font-family="sans-serif" font-size="13" lengthAdjust="spacing" textLength="4" x="786.5" y="482.0903"> </text><line style="stroke:#181818;stroke-width:1.0;stroke-dasharray:2.0,2.0;" x1="747.5" x2="789.5" y1="521.2891" y2="521.2891"/><line style="stroke:#181818;stroke-width:1.0;stroke-dasharray:2.0,2.0;" x1="789.5" x2="789.5" y1="521.2891" y2="534.2891"/><line style="stroke:#181818;stroke-width:1.0;stroke-dasharray:2.0,2.0;" x1="742.5" x2="789.5" y1="534.2891" y2="534.2891"/><polygon fill="#181818" points="752.5,530.2891,742.5,534.2891,752.5,538.2891,748.5,534.2891" style="stroke:#181818;stroke-width:1.0;"/><text fill="#000000" font-family="sans-serif" font-size="13" font-weight="bold" lengthAdjust="spacing" textLength="18" x="754.5" y="516.2231">14</text><text fill="#000000" font-family="sans-serif" font-size="13" lengthAdjust="spacing" textLength="4" x="776.5" y="516.2231"> </text><polygon fill="#181818" points="671.5,554.4219,661.5,558.4219,671.5,562.4219,667.5,558.4219" style="stroke:#181818;stroke-width:1.0;"/><line style="stroke:#181818;stroke-width:1.0;stroke-dasharray:2.0,2.0;" x1="665.5" x2="736.5" y1="558.4219" y2="558.4219"/><text fill="#000000" font-family="sans-serif" font-size="13" font-weight="bold" lengthAdjust="spacing" textLength="18" x="677.5" y="553.356">15</text><text fill="#000000" font-family="sans-serif" font-size="13" lengthAdjust="spacing" textLength="4" x="699.5" y="553.356"> </text><polygon fill="#181818" points="1297.5,583.5547,1307.5,587.5547,1297.5,591.5547,1301.5,587.5547" style="stroke:#181818;stroke-width:1.0;"/><line style="stroke:#181818;stroke-width:1.0;" x1="660.5" x2="1303.5" y1="587.5547" y2="587.5547"/><text fill="#000000" font-family="sans-serif" font-size="13" font-weight="bold" lengthAdjust="spacing" textLength="18" x="667.5" y="582.4888">16</text><text fill="#000000" font-family="sans-serif" font-size="13" lengthAdjust="spacing" textLength="23" x="689.5" y="582.4888">Get</text><line style="stroke:#181818;stroke-width:1.0;" x1="1319.5" x2="1366.5" y1="611.6875" y2="611.6875"/><line style="stroke:#181818;stroke-width:1.0;" x1="1366.5" x2="1366.5" y1="611.6875" y2="624.6875"/><line style="stroke:#181818;stroke-width:1.0;" x1="1325.5" x2="1366.5" y1="624.6875" y2="624.6875"/><polygon fill="#181818" points="1335.5,620.6875,1325.5,624.6875,1335.5,628.6875,1331.5,624.6875" style="stroke:#181818;stroke-width:1.0;"/><text fill="#000000" font-family="sans-serif" font-size="13" font-weight="bold" lengthAdjust="spacing" textLength="18" x="1331.5" y="606.6216">17</text><text fill="#000000" font-family="sans-serif" font-size="13" lengthAdjust="spacing" textLength="78" x="1353.5" y="606.6216">GetFromList</text><path d="M684.5,644.6875 L761.5,644.6875 L761.5,651.8203 L751.5,661.8203 L684.5,661.8203 L684.5,644.6875 " fill="#EEEEEE" style="stroke:#000000;stroke-width:1.5;"/><rect fill="none" height="46.2656" style="stroke:#000000;stroke-width:1.5;" width="720.5" x="684.5" y="644.6875"/><text fill="#000000" font-family="sans-serif" font-size="13" font-weight="bold" lengthAdjust="spacing" textLength="32" x="699.5" y="657.7544">loop</text><polygon fill="#181818" points="748.5,678.9531,738.5,682.9531,748.5,686.9531,744.5,682.9531" style="stroke:#181818;stroke-width:1.0;"/><line style="stroke:#181818;stroke-width:1.0;" x1="742.5" x2="1313.5" y1="682.9531" y2="682.9531"/><text fill="#000000" font-family="sans-serif" font-size="13" font-weight="bold" lengthAdjust="spacing" textLength="18" x="754.5" y="677.8872">18</text><text fill="#000000" font-family="sans-serif" font-size="13" lengthAdjust="spacing" textLength="23" x="776.5" y="677.8872">Get</text><line style="stroke:#181818;stroke-width:1.0;stroke-dasharray:2.0,2.0;" x1="1324.5" x2="1366.5" y1="724.0859" y2="724.0859"/><line style="stroke:#181818;stroke-width:1.0;stroke-dasharray:2.0,2.0;" x1="1366.5" x2="1366.5" y1="724.0859" y2="737.0859"/><line style="stroke:#181818;stroke-width:1.0;stroke-dasharray:2.0,2.0;" x1="1319.5" x2="1366.5" y1="737.0859" y2="737.0859"/><polygon fill="#181818" points="1329.5,733.0859,1319.5,737.0859,1329.5,741.0859,1325.5,737.0859" style="stroke:#181818;stroke-width:1.0;"/><text fill="#000000" font-family="sans-serif" font-size="13" font-weight="bold" lengthAdjust="spacing" textLength="18" x="1331.5" y="719.02">19</text><text fill="#000000" font-family="sans-serif" font-size="13" lengthAdjust="spacing" textLength="4" x="1353.5" y="719.02"> </text><polygon fill="#181818" points="671.5,757.2188,661.5,761.2188,671.5,765.2188,667.5,761.2188" style="stroke:#181818;stroke-width:1.0;"/><line style="stroke:#181818;stroke-width:1.0;stroke-dasharray:2.0,2.0;" x1="665.5" x2="1313.5" y1="761.2188" y2="761.2188"/><text fill="#000000" font-family="sans-serif" font-size="13" font-weight="bold" lengthAdjust="spacing" textLength="18" x="677.5" y="756.1528">20</text><text fill="#000000" font-family="sans-serif" font-size="13" lengthAdjust="spacing" textLength="4" x="699.5" y="756.1528"> </text><polygon fill="#181818" points="1426.5,786.3516,1436.5,790.3516,1426.5,794.3516,1430.5,790.3516" style="stroke:#181818;stroke-width:1.0;"/><line style="stroke:#181818;stroke-width:1.0;" x1="665.5" x2="1432.5" y1="790.3516" y2="790.3516"/><text fill="#000000" font-family="sans-serif" font-size="13" font-weight="bold" lengthAdjust="spacing" textLength="18" x="672.5" y="785.2856">21</text><text fill="#000000" font-family="sans-serif" font-size="13" lengthAdjust="spacing" textLength="23" x="694.5" y="785.2856">Get</text><path d="M1395.5,805.3516 L1472.5,805.3516 L1472.5,812.4844 L1462.5,822.4844 L1395.5,822.4844 L1395.5,805.3516 " fill="#EEEEEE" style="stroke:#000000;stroke-width:1.5;"/><rect fill="none" height="230.9297" style="stroke:#000000;stroke-width:1.5;" width="563.5" x="1395.5" y="805.3516"/><text fill="#000000" font-family="sans-serif" font-size="13" font-weight="bold" lengthAdjust="spacing" textLength="32" x="1410.5" y="818.4185">loop</text><polygon fill="#181818" points="1546.5,839.6172,1556.5,843.6172,1546.5,847.6172,1550.5,843.6172" style="stroke:#181818;stroke-width:1.0;"/><line style="stroke:#181818;stroke-width:1.0;" x1="1438.5" x2="1552.5" y1="843.6172" y2="843.6172"/><text fill="#000000" font-family="sans-serif" font-size="13" font-weight="bold" lengthAdjust="spacing" textLength="18" x="1445.5" y="838.5513">22</text><text fill="#000000" font-family="sans-serif" font-size="13" lengthAdjust="spacing" textLength="74" x="1467.5" y="838.5513">GetNextFile</text><polygon fill="#181818" points="1639,868.75,1649,872.75,1639,876.75,1643,872.75" style="stroke:#181818;stroke-width:1.0;"/><line style="stroke:#181818;stroke-width:1.0;" x1="1438.5" x2="1645" y1="872.75" y2="872.75"/><text fill="#000000" font-family="sans-serif" font-size="13" font-weight="bold" lengthAdjust="spacing" textLength="18" x="1445.5" y="867.6841">23</text><text fill="#000000" font-family="sans-serif" font-size="13" lengthAdjust="spacing" textLength="23" x="1467.5" y="867.6841">Get</text><line style="stroke:#181818;stroke-width:1.0;" x1="1661" x2="1703" y1="901.8828" y2="901.8828"/><line style="stroke:#181818;stroke-width:1.0;" x1="1703" x2="1703" y1="901.8828" y2="914.8828"/><line style="stroke:#181818;stroke-width:1.0;" x1="1662" x2="1703" y1="914.8828" y2="914.8828"/><polygon fill="#181818" points="1672,910.8828,1662,914.8828,1672,918.8828,1668,914.8828" style="stroke:#181818;stroke-width:1.0;"/><text fill="#000000" font-family="sans-serif" font-size="13" font-weight="bold" lengthAdjust="spacing" textLength="18" x="1668" y="896.8169">24</text><text fill="#000000" font-family="sans-serif" font-size="13" lengthAdjust="spacing" textLength="121" x="1690" y="896.8169">GetFromRowCache</text><line style="stroke:#181818;stroke-width:1.0;" x1="1661" x2="1703" y1="944.0156" y2="944.0156"/><line style="stroke:#181818;stroke-width:1.0;" x1="1703" x2="1703" y1="944.0156" y2="957.0156"/><line style="stroke:#181818;stroke-width:1.0;" x1="1662" x2="1703" y1="957.0156" y2="957.0156"/><polygon fill="#181818" points="1672,953.0156,1662,957.0156,1672,961.0156,1668,957.0156" style="stroke:#181818;stroke-width:1.0;"/><text fill="#000000" font-family="sans-serif" font-size="13" font-weight="bold" lengthAdjust="spacing" textLength="18" x="1668" y="938.9497">25</text><text fill="#000000" font-family="sans-serif" font-size="13" lengthAdjust="spacing" textLength="60" x="1690" y="938.9497">FindTable</text><line style="stroke:#181818;stroke-width:1.0;" x1="1661" x2="1703" y1="986.1484" y2="986.1484"/><line style="stroke:#181818;stroke-width:1.0;" x1="1703" x2="1703" y1="986.1484" y2="999.1484"/><line style="stroke:#181818;stroke-width:1.0;" x1="1662" x2="1703" y1="999.1484" y2="999.1484"/><polygon fill="#181818" points="1672,995.1484,1662,999.1484,1672,1003.1484,1668,999.1484" style="stroke:#181818;stroke-width:1.0;"/><text fill="#000000" font-family="sans-serif" font-size="13" font-weight="bold" lengthAdjust="spacing" textLength="18" x="1668" y="981.0825">26</text><text fill="#000000" font-family="sans-serif" font-size="13" lengthAdjust="spacing" textLength="180" x="1690" y="981.0825">GetTableReaderFromHandle</text><polygon fill="#181818" points="1870,1024.2813,1880,1028.2813,1870,1032.2813,1874,1028.2813" style="stroke:#181818;stroke-width:1.0;"/><line style="stroke:#181818;stroke-width:1.0;" x1="1661" x2="1876" y1="1028.2813" y2="1028.2813"/><text fill="#000000" font-family="sans-serif" font-size="13" font-weight="bold" lengthAdjust="spacing" textLength="18" x="1668" y="1023.2153">27</text><text fill="#000000" font-family="sans-serif" font-size="13" lengthAdjust="spacing" textLength="23" x="1690" y="1023.2153">Get</text><polygon fill="#181818" points="1449.5,1060.4141,1439.5,1064.4141,1449.5,1068.4141,1445.5,1064.4141" style="stroke:#181818;stroke-width:1.0;"/><line style="stroke:#181818;stroke-width:1.0;stroke-dasharray:2.0,2.0;" x1="1443.5" x2="1655" y1="1064.4141" y2="1064.4141"/><text fill="#000000" font-family="sans-serif" font-size="13" font-weight="bold" lengthAdjust="spacing" textLength="18" x="1455.5" y="1059.3481">28</text><text fill="#000000" font-family="sans-serif" font-size="13" lengthAdjust="spacing" textLength="4" x="1477.5" y="1059.3481"> </text><polygon fill="#181818" points="676.5,1089.5469,666.5,1093.5469,676.5,1097.5469,672.5,1093.5469" style="stroke:#181818;stroke-width:1.0;"/><line style="stroke:#181818;stroke-width:1.0;stroke-dasharray:2.0,2.0;" x1="670.5" x2="1437.5" y1="1093.5469" y2="1093.5469"/><text fill="#000000" font-family="sans-serif" font-size="13" font-weight="bold" lengthAdjust="spacing" textLength="18" x="682.5" y="1088.481">29</text><text fill="#000000" font-family="sans-serif" font-size="13" lengthAdjust="spacing" textLength="4" x="704.5" y="1088.481"> </text><line style="stroke:#181818;stroke-width:1.0;stroke-dasharray:2.0,2.0;" x1="665.5" x2="707.5" y1="1127.6797" y2="1127.6797"/><line style="stroke:#181818;stroke-width:1.0;stroke-dasharray:2.0,2.0;" x1="707.5" x2="707.5" y1="1127.6797" y2="1140.6797"/><line style="stroke:#181818;stroke-width:1.0;stroke-dasharray:2.0,2.0;" x1="660.5" x2="707.5" y1="1140.6797" y2="1140.6797"/><polygon fill="#181818" points="670.5,1136.6797,660.5,1140.6797,670.5,1144.6797,666.5,1140.6797" style="stroke:#181818;stroke-width:1.0;"/><text fill="#000000" font-family="sans-serif" font-size="13" font-weight="bold" lengthAdjust="spacing" textLength="18" x="672.5" y="1122.6138">30</text><text fill="#000000" font-family="sans-serif" font-size="13" lengthAdjust="spacing" textLength="4" x="694.5" y="1122.6138"> </text><polygon fill="#181818" points="325,1160.8125,315,1164.8125,325,1168.8125,321,1164.8125" style="stroke:#181818;stroke-width:1.0;"/><line style="stroke:#181818;stroke-width:1.0;stroke-dasharray:2.0,2.0;" x1="319" x2="644.5" y1="1164.8125" y2="1164.8125"/><text fill="#000000" font-family="sans-serif" font-size="13" font-weight="bold" lengthAdjust="spacing" textLength="18" x="331" y="1159.7466">31</text><text fill="#000000" font-family="sans-serif" font-size="13" lengthAdjust="spacing" textLength="4" x="353" y="1159.7466"> </text></g></svg>