<?xml version="1.0" encoding="UTF-8" standalone="no"?><svg xmlns="http://www.w3.org/2000/svg" xmlns:xlink="http://www.w3.org/1999/xlink" contentStyleType="text/css" height="1093px" preserveAspectRatio="none" style="width:1194px;height:1093px;background:#FFFFFF;" version="1.1" viewBox="0 0 1194 1093" width="1194px" zoomAndPan="magnify"><defs/><g><rect fill="#FFFFFF" height="972.5859" style="stroke:#181818;stroke-width:1.0;" width="10" x="123" y="67.4297"/><rect fill="#FFFFFF" height="124.3984" style="stroke:#181818;stroke-width:1.0;" width="10" x="128" y="511.0234"/><rect fill="#FFFFFF" height="239.7969" style="stroke:#181818;stroke-width:1.0;" width="10" x="469" y="209.9609"/><rect fill="#FFFFFF" height="82.2656" style="stroke:#181818;stroke-width:1.0;" width="10" x="474" y="289.2266"/><rect fill="#FFFFFF" height="155.5313" style="stroke:#181818;stroke-width:1.0;" width="10" x="667" y="671.5547"/><rect fill="#FFFFFF" height="58.2656" style="stroke:#181818;stroke-width:1.0;" width="10" x="865" y="880.3516"/><rect fill="none" height="547.125" style="stroke:#000000;stroke-width:1.5;" width="1147.5" x="41" y="464.7578"/><rect fill="none" height="133.6641" style="stroke:#000000;stroke-width:1.5;" width="1127.5" x="51" y="842.0859"/><line style="stroke:#181818;stroke-width:0.5;stroke-dasharray:5.0,5.0;" x1="28" x2="28" y1="36.2969" y2="1058.0156"/><line style="stroke:#181818;stroke-width:0.5;stroke-dasharray:5.0,5.0;" x1="128" x2="128" y1="36.2969" y2="1058.0156"/><line style="stroke:#181818;stroke-width:0.5;stroke-dasharray:5.0,5.0;" x1="312.5" x2="312.5" y1="36.2969" y2="1058.0156"/><line style="stroke:#181818;stroke-width:0.5;stroke-dasharray:5.0,5.0;" x1="473.5" x2="473.5" y1="36.2969" y2="1058.0156"/><line style="stroke:#181818;stroke-width:0.5;stroke-dasharray:5.0,5.0;" x1="672" x2="672" y1="36.2969" y2="1058.0156"/><line style="stroke:#181818;stroke-width:0.5;stroke-dasharray:5.0,5.0;" x1="869.5" x2="869.5" y1="36.2969" y2="1058.0156"/><line style="stroke:#181818;stroke-width:0.5;stroke-dasharray:5.0,5.0;" x1="1075.5" x2="1075.5" y1="36.2969" y2="1058.0156"/><rect fill="#E2E2F0" height="30.2969" rx="2.5" ry="2.5" style="stroke:#181818;stroke-width:0.5;" width="46" x="5" y="5"/><text fill="#000000" font-family="sans-serif" font-size="14" lengthAdjust="spacing" textLength="32" x="12" y="24.9951">User</text><rect fill="#E2E2F0" height="30.2969" rx="2.5" ry="2.5" style="stroke:#181818;stroke-width:0.5;" width="46" x="5" y="1057.0156"/><text fill="#000000" font-family="sans-serif" font-size="14" lengthAdjust="spacing" textLength="32" x="12" y="1077.0107">User</text><rect fill="#E2E2F0" height="30.2969" rx="2.5" ry="2.5" style="stroke:#181818;stroke-width:0.5;" width="134" x="61" y="5"/><text fill="#000000" font-family="sans-serif" font-size="14" lengthAdjust="spacing" textLength="120" x="68" y="24.9951">BlockBasedTable</text><rect fill="#E2E2F0" height="30.2969" rx="2.5" ry="2.5" style="stroke:#181818;stroke-width:0.5;" width="134" x="61" y="1057.0156"/><text fill="#000000" font-family="sans-serif" font-size="14" lengthAdjust="spacing" textLength="120" x="68" y="1077.0107">BlockBasedTable</text><rect fill="#E2E2F0" height="30.2969" rx="2.5" ry="2.5" style="stroke:#181818;stroke-width:0.5;" width="191" x="217.5" y="5"/><text fill="#000000" font-family="sans-serif" font-size="14" lengthAdjust="spacing" textLength="177" x="224.5" y="24.9951">BinarySearchIndexReader</text><rect fill="#E2E2F0" height="30.2969" rx="2.5" ry="2.5" style="stroke:#181818;stroke-width:0.5;" width="191" x="217.5" y="1057.0156"/><text fill="#000000" font-family="sans-serif" font-size="14" lengthAdjust="spacing" textLength="177" x="224.5" y="1077.0107">BinarySearchIndexReader</text><rect fill="#E2E2F0" height="30.2969" rx="2.5" ry="2.5" style="stroke:#181818;stroke-width:0.5;" width="111" x="418.5" y="5"/><text fill="#000000" font-family="sans-serif" font-size="14" lengthAdjust="spacing" textLength="97" x="425.5" y="24.9951">IndexBlockIter</text><rect fill="#E2E2F0" height="30.2969" rx="2.5" ry="2.5" style="stroke:#181818;stroke-width:0.5;" width="111" x="418.5" y="1057.0156"/><text fill="#000000" font-family="sans-serif" font-size="14" lengthAdjust="spacing" textLength="97" x="425.5" y="1077.0107">IndexBlockIter</text><rect fill="#E2E2F0" height="30.2969" rx="2.5" ry="2.5" style="stroke:#181818;stroke-width:0.5;" width="106" x="619" y="5"/><text fill="#000000" font-family="sans-serif" font-size="14" lengthAdjust="spacing" textLength="92" x="626" y="24.9951">DataBlockIter</text><rect fill="#E2E2F0" height="30.2969" rx="2.5" ry="2.5" style="stroke:#181818;stroke-width:0.5;" width="106" x="619" y="1057.0156"/><text fill="#000000" font-family="sans-serif" font-size="14" lengthAdjust="spacing" textLength="92" x="626" y="1077.0107">DataBlockIter</text><rect fill="#E2E2F0" height="30.2969" rx="2.5" ry="2.5" style="stroke:#181818;stroke-width:0.5;" width="93" x="823.5" y="5"/><text fill="#000000" font-family="sans-serif" font-size="14" lengthAdjust="spacing" textLength="79" x="830.5" y="24.9951">GetContext</text><rect fill="#E2E2F0" height="30.2969" rx="2.5" ry="2.5" style="stroke:#181818;stroke-width:0.5;" width="93" x="823.5" y="1057.0156"/><text fill="#000000" font-family="sans-serif" font-size="14" lengthAdjust="spacing" textLength="79" x="830.5" y="1077.0107">GetContext</text><rect fill="#E2E2F0" height="30.2969" rx="2.5" ry="2.5" style="stroke:#181818;stroke-width:0.5;" width="185" x="983.5" y="5"/><text fill="#000000" font-family="sans-serif" font-size="14" lengthAdjust="spacing" textLength="171" x="990.5" y="24.9951">BytewiseComparatorImpl</text><rect fill="#E2E2F0" height="30.2969" rx="2.5" ry="2.5" style="stroke:#181818;stroke-width:0.5;" width="185" x="983.5" y="1057.0156"/><text fill="#000000" font-family="sans-serif" font-size="14" lengthAdjust="spacing" textLength="171" x="990.5" y="1077.0107">BytewiseComparatorImpl</text><rect fill="#FFFFFF" height="972.5859" style="stroke:#181818;stroke-width:1.0;" width="10" x="123" y="67.4297"/><rect fill="#FFFFFF" height="124.3984" style="stroke:#181818;stroke-width:1.0;" width="10" x="128" y="511.0234"/><rect fill="#FFFFFF" height="239.7969" style="stroke:#181818;stroke-width:1.0;" width="10" x="469" y="209.9609"/><rect fill="#FFFFFF" height="82.2656" style="stroke:#181818;stroke-width:1.0;" width="10" x="474" y="289.2266"/><rect fill="#FFFFFF" height="155.5313" style="stroke:#181818;stroke-width:1.0;" width="10" x="667" y="671.5547"/><rect fill="#FFFFFF" height="58.2656" style="stroke:#181818;stroke-width:1.0;" width="10" x="865" y="880.3516"/><polygon fill="#181818" points="111,63.4297,121,67.4297,111,71.4297,115,67.4297" style="stroke:#181818;stroke-width:1.0;"/><line style="stroke:#181818;stroke-width:1.0;" x1="28" x2="117" y1="67.4297" y2="67.4297"/><text fill="#000000" font-family="sans-serif" font-size="13" font-weight="bold" lengthAdjust="spacing" textLength="9" x="35" y="62.3638">1</text><text fill="#000000" font-family="sans-serif" font-size="13" lengthAdjust="spacing" textLength="23" x="48" y="62.3638">Get</text><line style="stroke:#181818;stroke-width:1.0;" x1="133" x2="175" y1="96.5625" y2="96.5625"/><line style="stroke:#181818;stroke-width:1.0;" x1="175" x2="175" y1="96.5625" y2="109.5625"/><line style="stroke:#181818;stroke-width:1.0;" x1="134" x2="175" y1="109.5625" y2="109.5625"/><polygon fill="#181818" points="144,105.5625,134,109.5625,144,113.5625,140,109.5625" style="stroke:#181818;stroke-width:1.0;"/><text fill="#000000" font-family="sans-serif" font-size="13" font-weight="bold" lengthAdjust="spacing" textLength="9" x="140" y="91.4966">2</text><text fill="#000000" font-family="sans-serif" font-size="13" lengthAdjust="spacing" textLength="140" x="153" y="91.4966">FullFilterKeyMayMatch</text><line style="stroke:#181818;stroke-width:1.0;" x1="133" x2="175" y1="138.6953" y2="138.6953"/><line style="stroke:#181818;stroke-width:1.0;" x1="175" x2="175" y1="138.6953" y2="151.6953"/><line style="stroke:#181818;stroke-width:1.0;" x1="134" x2="175" y1="151.6953" y2="151.6953"/><polygon fill="#181818" points="144,147.6953,134,151.6953,144,155.6953,140,151.6953" style="stroke:#181818;stroke-width:1.0;"/><text fill="#000000" font-family="sans-serif" font-size="13" font-weight="bold" lengthAdjust="spacing" textLength="9" x="140" y="133.6294">3</text><text fill="#000000" font-family="sans-serif" font-size="13" lengthAdjust="spacing" textLength="108" x="153" y="133.6294">NewIndexIterator</text><polygon fill="#181818" points="301,176.8281,311,180.8281,301,184.8281,305,180.8281" style="stroke:#181818;stroke-width:1.0;"/><line style="stroke:#181818;stroke-width:1.0;" x1="133" x2="307" y1="180.8281" y2="180.8281"/><text fill="#000000" font-family="sans-serif" font-size="13" font-weight="bold" lengthAdjust="spacing" textLength="9" x="140" y="175.7622">4</text><text fill="#000000" font-family="sans-serif" font-size="13" lengthAdjust="spacing" textLength="74" x="153" y="175.7622">NewIterator</text><polygon fill="#181818" points="457,205.9609,467,209.9609,457,213.9609,461,209.9609" style="stroke:#181818;stroke-width:1.0;"/><line style="stroke:#181818;stroke-width:1.0;" x1="133" x2="463" y1="209.9609" y2="209.9609"/><text fill="#000000" font-family="sans-serif" font-size="13" font-weight="bold" lengthAdjust="spacing" textLength="9" x="140" y="204.895">5</text><text fill="#000000" font-family="sans-serif" font-size="13" lengthAdjust="spacing" textLength="32" x="153" y="204.895">Seek</text><line style="stroke:#181818;stroke-width:1.0;" x1="479" x2="521" y1="239.0938" y2="239.0938"/><line style="stroke:#181818;stroke-width:1.0;" x1="521" x2="521" y1="239.0938" y2="252.0938"/><line style="stroke:#181818;stroke-width:1.0;" x1="480" x2="521" y1="252.0938" y2="252.0938"/><polygon fill="#181818" points="490,248.0938,480,252.0938,490,256.0938,486,252.0938" style="stroke:#181818;stroke-width:1.0;"/><text fill="#000000" font-family="sans-serif" font-size="13" font-weight="bold" lengthAdjust="spacing" textLength="9" x="486" y="234.0278">6</text><text fill="#000000" font-family="sans-serif" font-size="13" lengthAdjust="spacing" textLength="59" x="499" y="234.0278">SeekImpl</text><line style="stroke:#181818;stroke-width:1.0;" x1="479" x2="526" y1="276.2266" y2="276.2266"/><line style="stroke:#181818;stroke-width:1.0;" x1="526" x2="526" y1="276.2266" y2="289.2266"/><line style="stroke:#181818;stroke-width:1.0;" x1="485" x2="526" y1="289.2266" y2="289.2266"/><polygon fill="#181818" points="495,285.2266,485,289.2266,495,293.2266,491,289.2266" style="stroke:#181818;stroke-width:1.0;"/><text fill="#000000" font-family="sans-serif" font-size="13" font-weight="bold" lengthAdjust="spacing" textLength="9" x="491" y="271.1606">7</text><text fill="#000000" font-family="sans-serif" font-size="13" lengthAdjust="spacing" textLength="72" x="504" y="271.1606">BinarySeek</text><line style="stroke:#181818;stroke-width:1.0;" x1="484" x2="526" y1="323.3594" y2="323.3594"/><line style="stroke:#181818;stroke-width:1.0;" x1="526" x2="526" y1="323.3594" y2="336.3594"/><line style="stroke:#181818;stroke-width:1.0;" x1="485" x2="526" y1="336.3594" y2="336.3594"/><polygon fill="#181818" points="495,332.3594,485,336.3594,495,340.3594,491,336.3594" style="stroke:#181818;stroke-width:1.0;"/><text fill="#000000" font-family="sans-serif" font-size="13" font-weight="bold" lengthAdjust="spacing" textLength="9" x="491" y="318.2935">8</text><text fill="#000000" font-family="sans-serif" font-size="13" lengthAdjust="spacing" textLength="130" x="504" y="318.2935">CompareCurrentKey</text><line style="stroke:#181818;stroke-width:1.0;stroke-dasharray:2.0,2.0;" x1="484" x2="526" y1="370.4922" y2="370.4922"/><line style="stroke:#181818;stroke-width:1.0;stroke-dasharray:2.0,2.0;" x1="526" x2="526" y1="370.4922" y2="383.4922"/><line style="stroke:#181818;stroke-width:1.0;stroke-dasharray:2.0,2.0;" x1="479" x2="526" y1="383.4922" y2="383.4922"/><polygon fill="#181818" points="489,379.4922,479,383.4922,489,387.4922,485,383.4922" style="stroke:#181818;stroke-width:1.0;"/><text fill="#000000" font-family="sans-serif" font-size="13" font-weight="bold" lengthAdjust="spacing" textLength="9" x="491" y="365.4263">9</text><text fill="#000000" font-family="sans-serif" font-size="13" lengthAdjust="spacing" textLength="4" x="504" y="365.4263"> </text><line style="stroke:#181818;stroke-width:1.0;" x1="479" x2="521" y1="407.625" y2="407.625"/><line style="stroke:#181818;stroke-width:1.0;" x1="521" x2="521" y1="407.625" y2="420.625"/><line style="stroke:#181818;stroke-width:1.0;" x1="480" x2="521" y1="420.625" y2="420.625"/><polygon fill="#181818" points="490,416.625,480,420.625,490,424.625,486,420.625" style="stroke:#181818;stroke-width:1.0;"/><text fill="#000000" font-family="sans-serif" font-size="13" font-weight="bold" lengthAdjust="spacing" textLength="18" x="486" y="402.5591">10</text><text fill="#000000" font-family="sans-serif" font-size="13" lengthAdjust="spacing" textLength="152" x="508" y="402.5591">FindKeyAfterBinarySeek</text><polygon fill="#181818" points="144,445.7578,134,449.7578,144,453.7578,140,449.7578" style="stroke:#181818;stroke-width:1.0;"/><line style="stroke:#181818;stroke-width:1.0;" x1="138" x2="473" y1="449.7578" y2="449.7578"/><text fill="#000000" font-family="sans-serif" font-size="13" font-weight="bold" lengthAdjust="spacing" textLength="18" x="150" y="444.6919">11</text><text fill="#000000" font-family="sans-serif" font-size="13" lengthAdjust="spacing" textLength="4" x="172" y="444.6919"> </text><path d="M41,464.7578 L118,464.7578 L118,471.8906 L108,481.8906 L41,481.8906 L41,464.7578 " fill="#EEEEEE" style="stroke:#000000;stroke-width:1.5;"/><rect fill="none" height="547.125" style="stroke:#000000;stroke-width:1.5;" width="1147.5" x="41" y="464.7578"/><text fill="#000000" font-family="sans-serif" font-size="13" font-weight="bold" lengthAdjust="spacing" textLength="32" x="56" y="477.8247">loop</text><line style="stroke:#181818;stroke-width:1.0;" x1="133" x2="180" y1="498.0234" y2="498.0234"/><line style="stroke:#181818;stroke-width:1.0;" x1="180" x2="180" y1="498.0234" y2="511.0234"/><line style="stroke:#181818;stroke-width:1.0;" x1="139" x2="180" y1="511.0234" y2="511.0234"/><polygon fill="#181818" points="149,507.0234,139,511.0234,149,515.0234,145,511.0234" style="stroke:#181818;stroke-width:1.0;"/><text fill="#000000" font-family="sans-serif" font-size="13" font-weight="bold" lengthAdjust="spacing" textLength="18" x="145" y="492.9575">12</text><text fill="#000000" font-family="sans-serif" font-size="13" lengthAdjust="spacing" textLength="139" x="167" y="492.9575">NewDataBlockIterator</text><line style="stroke:#181818;stroke-width:1.0;" x1="138" x2="180" y1="545.1563" y2="545.1563"/><line style="stroke:#181818;stroke-width:1.0;" x1="180" x2="180" y1="545.1563" y2="558.1563"/><line style="stroke:#181818;stroke-width:1.0;" x1="139" x2="180" y1="558.1563" y2="558.1563"/><polygon fill="#181818" points="149,554.1563,139,558.1563,149,562.1563,145,558.1563" style="stroke:#181818;stroke-width:1.0;"/><text fill="#000000" font-family="sans-serif" font-size="13" font-weight="bold" lengthAdjust="spacing" textLength="18" x="145" y="540.0903">13</text><text fill="#000000" font-family="sans-serif" font-size="13" lengthAdjust="spacing" textLength="86" x="167" y="540.0903">RetrieveBlock</text><line style="stroke:#181818;stroke-width:1.0;" x1="138" x2="180" y1="587.2891" y2="587.2891"/><line style="stroke:#181818;stroke-width:1.0;" x1="180" x2="180" y1="587.2891" y2="600.2891"/><line style="stroke:#181818;stroke-width:1.0;" x1="139" x2="180" y1="600.2891" y2="600.2891"/><polygon fill="#181818" points="149,596.2891,139,600.2891,149,604.2891,145,600.2891" style="stroke:#181818;stroke-width:1.0;"/><text fill="#000000" font-family="sans-serif" font-size="13" font-weight="bold" lengthAdjust="spacing" textLength="18" x="145" y="582.2231">14</text><text fill="#000000" font-family="sans-serif" font-size="13" lengthAdjust="spacing" textLength="100" x="167" y="582.2231">InitBlockIterator</text><line style="stroke:#181818;stroke-width:1.0;" x1="138" x2="180" y1="634.4219" y2="634.4219"/><line style="stroke:#181818;stroke-width:1.0;" x1="180" x2="180" y1="634.4219" y2="647.4219"/><line style="stroke:#181818;stroke-width:1.0;" x1="133" x2="180" y1="647.4219" y2="647.4219"/><polygon fill="#181818" points="143,643.4219,133,647.4219,143,651.4219,139,647.4219" style="stroke:#181818;stroke-width:1.0;"/><text fill="#000000" font-family="sans-serif" font-size="13" font-weight="bold" lengthAdjust="spacing" textLength="18" x="145" y="629.356">15</text><text fill="#000000" font-family="sans-serif" font-size="13" lengthAdjust="spacing" textLength="4" x="167" y="629.356"> </text><polygon fill="#181818" points="655,667.5547,665,671.5547,655,675.5547,659,671.5547" style="stroke:#181818;stroke-width:1.0;"/><line style="stroke:#181818;stroke-width:1.0;" x1="133" x2="661" y1="671.5547" y2="671.5547"/><text fill="#000000" font-family="sans-serif" font-size="13" font-weight="bold" lengthAdjust="spacing" textLength="18" x="140" y="666.4888">16</text><text fill="#000000" font-family="sans-serif" font-size="13" lengthAdjust="spacing" textLength="75" x="162" y="666.4888">SeekForGet</text><line style="stroke:#181818;stroke-width:1.0;" x1="677" x2="719" y1="700.6875" y2="700.6875"/><line style="stroke:#181818;stroke-width:1.0;" x1="719" x2="719" y1="700.6875" y2="713.6875"/><line style="stroke:#181818;stroke-width:1.0;" x1="678" x2="719" y1="713.6875" y2="713.6875"/><polygon fill="#181818" points="688,709.6875,678,713.6875,688,717.6875,684,713.6875" style="stroke:#181818;stroke-width:1.0;"/><text fill="#000000" font-family="sans-serif" font-size="13" font-weight="bold" lengthAdjust="spacing" textLength="18" x="684" y="695.6216">17</text><text fill="#000000" font-family="sans-serif" font-size="13" lengthAdjust="spacing" textLength="59" x="706" y="695.6216">SeekImpl</text><line style="stroke:#181818;stroke-width:1.0;" x1="677" x2="719" y1="742.8203" y2="742.8203"/><line style="stroke:#181818;stroke-width:1.0;" x1="719" x2="719" y1="742.8203" y2="755.8203"/><line style="stroke:#181818;stroke-width:1.0;" x1="678" x2="719" y1="755.8203" y2="755.8203"/><polygon fill="#181818" points="688,751.8203,678,755.8203,688,759.8203,684,755.8203" style="stroke:#181818;stroke-width:1.0;"/><text fill="#000000" font-family="sans-serif" font-size="13" font-weight="bold" lengthAdjust="spacing" textLength="18" x="684" y="737.7544">18</text><text fill="#000000" font-family="sans-serif" font-size="13" lengthAdjust="spacing" textLength="72" x="706" y="737.7544">BinarySeek</text><line style="stroke:#181818;stroke-width:1.0;" x1="677" x2="719" y1="784.9531" y2="784.9531"/><line style="stroke:#181818;stroke-width:1.0;" x1="719" x2="719" y1="784.9531" y2="797.9531"/><line style="stroke:#181818;stroke-width:1.0;" x1="678" x2="719" y1="797.9531" y2="797.9531"/><polygon fill="#181818" points="688,793.9531,678,797.9531,688,801.9531,684,797.9531" style="stroke:#181818;stroke-width:1.0;"/><text fill="#000000" font-family="sans-serif" font-size="13" font-weight="bold" lengthAdjust="spacing" textLength="18" x="684" y="779.8872">19</text><text fill="#000000" font-family="sans-serif" font-size="13" lengthAdjust="spacing" textLength="152" x="706" y="779.8872">FindKeyAfterBinarySeek</text><polygon fill="#181818" points="144,823.0859,134,827.0859,144,831.0859,140,827.0859" style="stroke:#181818;stroke-width:1.0;"/><line style="stroke:#181818;stroke-width:1.0;" x1="138" x2="671" y1="827.0859" y2="827.0859"/><text fill="#000000" font-family="sans-serif" font-size="13" font-weight="bold" lengthAdjust="spacing" textLength="18" x="150" y="822.02">20</text><text fill="#000000" font-family="sans-serif" font-size="13" lengthAdjust="spacing" textLength="4" x="172" y="822.02"> </text><path d="M51,842.0859 L128,842.0859 L128,849.2188 L118,859.2188 L51,859.2188 L51,842.0859 " fill="#EEEEEE" style="stroke:#000000;stroke-width:1.5;"/><rect fill="none" height="133.6641" style="stroke:#000000;stroke-width:1.5;" width="1127.5" x="51" y="842.0859"/><text fill="#000000" font-family="sans-serif" font-size="13" font-weight="bold" lengthAdjust="spacing" textLength="32" x="66" y="855.1528">loop</text><polygon fill="#181818" points="853,876.3516,863,880.3516,853,884.3516,857,880.3516" style="stroke:#181818;stroke-width:1.0;"/><line style="stroke:#181818;stroke-width:1.0;" x1="133" x2="859" y1="880.3516" y2="880.3516"/><text fill="#000000" font-family="sans-serif" font-size="13" font-weight="bold" lengthAdjust="spacing" textLength="18" x="140" y="875.2856">21</text><text fill="#000000" font-family="sans-serif" font-size="13" lengthAdjust="spacing" textLength="68" x="162" y="875.2856">SaveValue</text><polygon fill="#181818" points="1064,905.4844,1074,909.4844,1064,913.4844,1068,909.4844" style="stroke:#181818;stroke-width:1.0;"/><line style="stroke:#181818;stroke-width:1.0;" x1="875" x2="1070" y1="909.4844" y2="909.4844"/><text fill="#000000" font-family="sans-serif" font-size="13" font-weight="bold" lengthAdjust="spacing" textLength="18" x="882" y="904.4185">22</text><text fill="#000000" font-family="sans-serif" font-size="13" lengthAdjust="spacing" textLength="155" x="904" y="904.4185">EqualWithoutTimestamp</text><polygon fill="#181818" points="144,934.6172,134,938.6172,144,942.6172,140,938.6172" style="stroke:#181818;stroke-width:1.0;"/><line style="stroke:#181818;stroke-width:1.0;" x1="138" x2="869" y1="938.6172" y2="938.6172"/><text fill="#000000" font-family="sans-serif" font-size="13" font-weight="bold" lengthAdjust="spacing" textLength="18" x="150" y="933.5513">23</text><text fill="#000000" font-family="sans-serif" font-size="13" lengthAdjust="spacing" textLength="4" x="172" y="933.5513"> </text><polygon fill="#181818" points="660,963.75,670,967.75,660,971.75,664,967.75" style="stroke:#181818;stroke-width:1.0;"/><line style="stroke:#181818;stroke-width:1.0;" x1="133" x2="666" y1="967.75" y2="967.75"/><text fill="#000000" font-family="sans-serif" font-size="13" font-weight="bold" lengthAdjust="spacing" textLength="18" x="140" y="962.6841">24</text><text fill="#000000" font-family="sans-serif" font-size="13" lengthAdjust="spacing" textLength="30" x="162" y="962.6841">Next</text><polygon fill="#181818" points="462,999.8828,472,1003.8828,462,1007.8828,466,1003.8828" style="stroke:#181818;stroke-width:1.0;"/><line style="stroke:#181818;stroke-width:1.0;" x1="133" x2="468" y1="1003.8828" y2="1003.8828"/><text fill="#000000" font-family="sans-serif" font-size="13" font-weight="bold" lengthAdjust="spacing" textLength="18" x="140" y="998.8169">25</text><text fill="#000000" font-family="sans-serif" font-size="13" lengthAdjust="spacing" textLength="30" x="162" y="998.8169">Next</text><polygon fill="#181818" points="39,1036.0156,29,1040.0156,39,1044.0156,35,1040.0156" style="stroke:#181818;stroke-width:1.0;"/><line style="stroke:#181818;stroke-width:1.0;" x1="33" x2="127" y1="1040.0156" y2="1040.0156"/><text fill="#000000" font-family="sans-serif" font-size="13" font-weight="bold" lengthAdjust="spacing" textLength="18" x="45" y="1034.9497">26</text><text fill="#000000" font-family="sans-serif" font-size="13" lengthAdjust="spacing" textLength="4" x="67" y="1034.9497"> </text></g></svg>