<?xml version="1.0" encoding="UTF-8" standalone="no"?><svg xmlns="http://www.w3.org/2000/svg" xmlns:xlink="http://www.w3.org/1999/xlink" contentStyleType="text/css" height="506px" preserveAspectRatio="none" style="width:904px;height:506px;background:#FFFFFF;" version="1.1" viewBox="0 0 904 506" width="904px" zoomAndPan="magnify"><defs/><g><rect fill="#FFFFFF" height="385.4609" style="stroke:#181818;stroke-width:1.0;" width="10" x="146" y="67.4297"/><rect fill="#FFFFFF" height="158.6641" style="stroke:#181818;stroke-width:1.0;" width="10" x="402" y="180.8281"/><rect fill="#FFFFFF" height="58.2656" style="stroke:#181818;stroke-width:1.0;" width="10" x="605" y="252.0938"/><line style="stroke:#181818;stroke-width:0.5;stroke-dasharray:5.0,5.0;" x1="28" x2="28" y1="36.2969" y2="470.8906"/><line style="stroke:#181818;stroke-width:0.5;stroke-dasharray:5.0,5.0;" x1="151" x2="151" y1="36.2969" y2="470.8906"/><line style="stroke:#181818;stroke-width:0.5;stroke-dasharray:5.0,5.0;" x1="406.5" x2="406.5" y1="36.2969" y2="470.8906"/><line style="stroke:#181818;stroke-width:0.5;stroke-dasharray:5.0,5.0;" x1="609.5" x2="609.5" y1="36.2969" y2="470.8906"/><line style="stroke:#181818;stroke-width:0.5;stroke-dasharray:5.0,5.0;" x1="807.5" x2="807.5" y1="36.2969" y2="470.8906"/><rect fill="#E2E2F0" height="30.2969" rx="2.5" ry="2.5" style="stroke:#181818;stroke-width:0.5;" width="46" x="5" y="5"/><text fill="#000000" font-family="sans-serif" font-size="14" lengthAdjust="spacing" textLength="32" x="12" y="24.9951">User</text><rect fill="#E2E2F0" height="30.2969" rx="2.5" ry="2.5" style="stroke:#181818;stroke-width:0.5;" width="46" x="5" y="469.8906"/><text fill="#000000" font-family="sans-serif" font-size="14" lengthAdjust="spacing" textLength="32" x="12" y="489.8857">User</text><rect fill="#E2E2F0" height="30.2969" rx="2.5" ry="2.5" style="stroke:#181818;stroke-width:0.5;" width="134" x="84" y="5"/><text fill="#000000" font-family="sans-serif" font-size="14" lengthAdjust="spacing" textLength="120" x="91" y="24.9951">BlockBasedTable</text><rect fill="#E2E2F0" height="30.2969" rx="2.5" ry="2.5" style="stroke:#181818;stroke-width:0.5;" width="134" x="84" y="469.8906"/><text fill="#000000" font-family="sans-serif" font-size="14" lengthAdjust="spacing" textLength="120" x="91" y="489.8857">BlockBasedTable</text><rect fill="#E2E2F0" height="30.2969" rx="2.5" ry="2.5" style="stroke:#181818;stroke-width:0.5;" width="105" x="354.5" y="5"/><text fill="#000000" font-family="sans-serif" font-size="14" lengthAdjust="spacing" textLength="91" x="361.5" y="24.9951">BlockFetcher</text><rect fill="#E2E2F0" height="30.2969" rx="2.5" ry="2.5" style="stroke:#181818;stroke-width:0.5;" width="105" x="354.5" y="469.8906"/><text fill="#000000" font-family="sans-serif" font-size="14" lengthAdjust="spacing" textLength="91" x="361.5" y="489.8857">BlockFetcher</text><rect fill="#E2E2F0" height="30.2969" rx="2.5" ry="2.5" style="stroke:#181818;stroke-width:0.5;" width="195" x="512.5" y="5"/><text fill="#000000" font-family="sans-serif" font-size="14" lengthAdjust="spacing" textLength="181" x="519.5" y="24.9951">RandomAccessFileReader</text><rect fill="#E2E2F0" height="30.2969" rx="2.5" ry="2.5" style="stroke:#181818;stroke-width:0.5;" width="195" x="512.5" y="469.8906"/><text fill="#000000" font-family="sans-serif" font-size="14" lengthAdjust="spacing" textLength="181" x="519.5" y="489.8857">RandomAccessFileReader</text><rect fill="#E2E2F0" height="30.2969" rx="2.5" ry="2.5" style="stroke:#181818;stroke-width:0.5;" width="181" x="717.5" y="5"/><text fill="#000000" font-family="sans-serif" font-size="14" lengthAdjust="spacing" textLength="167" x="724.5" y="24.9951">PosixRandomAccessFile</text><rect fill="#E2E2F0" height="30.2969" rx="2.5" ry="2.5" style="stroke:#181818;stroke-width:0.5;" width="181" x="717.5" y="469.8906"/><text fill="#000000" font-family="sans-serif" font-size="14" lengthAdjust="spacing" textLength="167" x="724.5" y="489.8857">PosixRandomAccessFile</text><rect fill="#FFFFFF" height="385.4609" style="stroke:#181818;stroke-width:1.0;" width="10" x="146" y="67.4297"/><rect fill="#FFFFFF" height="158.6641" style="stroke:#181818;stroke-width:1.0;" width="10" x="402" y="180.8281"/><rect fill="#FFFFFF" height="58.2656" style="stroke:#181818;stroke-width:1.0;" width="10" x="605" y="252.0938"/><polygon fill="#181818" points="134,63.4297,144,67.4297,134,71.4297,138,67.4297" style="stroke:#181818;stroke-width:1.0;"/><line style="stroke:#181818;stroke-width:1.0;" x1="28" x2="140" y1="67.4297" y2="67.4297"/><text fill="#000000" font-family="sans-serif" font-size="13" font-weight="bold" lengthAdjust="spacing" textLength="9" x="35" y="62.3638">1</text><text fill="#000000" font-family="sans-serif" font-size="13" lengthAdjust="spacing" textLength="86" x="48" y="62.3638">RetrieveBlock</text><line style="stroke:#181818;stroke-width:1.0;" x1="156" x2="198" y1="96.5625" y2="96.5625"/><line style="stroke:#181818;stroke-width:1.0;" x1="198" x2="198" y1="96.5625" y2="109.5625"/><line style="stroke:#181818;stroke-width:1.0;" x1="157" x2="198" y1="109.5625" y2="109.5625"/><polygon fill="#181818" points="167,105.5625,157,109.5625,167,113.5625,163,109.5625" style="stroke:#181818;stroke-width:1.0;"/><text fill="#000000" font-family="sans-serif" font-size="13" font-weight="bold" lengthAdjust="spacing" textLength="9" x="163" y="91.4966">2</text><text fill="#000000" font-family="sans-serif" font-size="13" lengthAdjust="spacing" textLength="219" x="176" y="91.4966">MaybeReadBlockAndLoadToCache</text><line style="stroke:#181818;stroke-width:1.0;" x1="156" x2="198" y1="138.6953" y2="138.6953"/><line style="stroke:#181818;stroke-width:1.0;" x1="198" x2="198" y1="138.6953" y2="151.6953"/><line style="stroke:#181818;stroke-width:1.0;" x1="157" x2="198" y1="151.6953" y2="151.6953"/><polygon fill="#181818" points="167,147.6953,157,151.6953,167,155.6953,163,151.6953" style="stroke:#181818;stroke-width:1.0;"/><text fill="#000000" font-family="sans-serif" font-size="13" font-weight="bold" lengthAdjust="spacing" textLength="9" x="163" y="133.6294">3</text><text fill="#000000" font-family="sans-serif" font-size="13" lengthAdjust="spacing" textLength="161" x="176" y="133.6294">GetDataBlockFromCache</text><polygon fill="#181818" points="390,176.8281,400,180.8281,390,184.8281,394,180.8281" style="stroke:#181818;stroke-width:1.0;"/><line style="stroke:#181818;stroke-width:1.0;" x1="156" x2="396" y1="180.8281" y2="180.8281"/><text fill="#000000" font-family="sans-serif" font-size="13" font-weight="bold" lengthAdjust="spacing" textLength="9" x="163" y="175.7622">4</text><text fill="#000000" font-family="sans-serif" font-size="13" lengthAdjust="spacing" textLength="124" x="176" y="175.7622">ReadBlockContents</text><line style="stroke:#181818;stroke-width:1.0;" x1="412" x2="454" y1="209.9609" y2="209.9609"/><line style="stroke:#181818;stroke-width:1.0;" x1="454" x2="454" y1="209.9609" y2="222.9609"/><line style="stroke:#181818;stroke-width:1.0;" x1="413" x2="454" y1="222.9609" y2="222.9609"/><polygon fill="#181818" points="423,218.9609,413,222.9609,423,226.9609,419,222.9609" style="stroke:#181818;stroke-width:1.0;"/><text fill="#000000" font-family="sans-serif" font-size="13" font-weight="bold" lengthAdjust="spacing" textLength="9" x="419" y="204.895">5</text><text fill="#000000" font-family="sans-serif" font-size="13" lengthAdjust="spacing" textLength="166" x="432" y="204.895">TryGetFromPrefetchBuffer</text><polygon fill="#181818" points="593,248.0938,603,252.0938,593,256.0938,597,252.0938" style="stroke:#181818;stroke-width:1.0;"/><line style="stroke:#181818;stroke-width:1.0;" x1="412" x2="599" y1="252.0938" y2="252.0938"/><text fill="#000000" font-family="sans-serif" font-size="13" font-weight="bold" lengthAdjust="spacing" textLength="9" x="419" y="247.0278">6</text><text fill="#000000" font-family="sans-serif" font-size="13" lengthAdjust="spacing" textLength="32" x="432" y="247.0278">Read</text><polygon fill="#181818" points="796,277.2266,806,281.2266,796,285.2266,800,281.2266" style="stroke:#181818;stroke-width:1.0;"/><line style="stroke:#181818;stroke-width:1.0;" x1="615" x2="802" y1="281.2266" y2="281.2266"/><text fill="#000000" font-family="sans-serif" font-size="13" font-weight="bold" lengthAdjust="spacing" textLength="9" x="622" y="276.1606">7</text><text fill="#000000" font-family="sans-serif" font-size="13" lengthAdjust="spacing" textLength="32" x="635" y="276.1606">Read</text><polygon fill="#181818" points="423,306.3594,413,310.3594,423,314.3594,419,310.3594" style="stroke:#181818;stroke-width:1.0;"/><line style="stroke:#181818;stroke-width:1.0;" x1="417" x2="609" y1="310.3594" y2="310.3594"/><text fill="#000000" font-family="sans-serif" font-size="13" font-weight="bold" lengthAdjust="spacing" textLength="9" x="429" y="305.2935">8</text><text fill="#000000" font-family="sans-serif" font-size="13" lengthAdjust="spacing" textLength="4" x="442" y="305.2935"> </text><polygon fill="#181818" points="167,335.4922,157,339.4922,167,343.4922,163,339.4922" style="stroke:#181818;stroke-width:1.0;"/><line style="stroke:#181818;stroke-width:1.0;" x1="161" x2="406" y1="339.4922" y2="339.4922"/><text fill="#000000" font-family="sans-serif" font-size="13" font-weight="bold" lengthAdjust="spacing" textLength="9" x="173" y="334.4263">9</text><text fill="#000000" font-family="sans-serif" font-size="13" lengthAdjust="spacing" textLength="4" x="186" y="334.4263"> </text><line style="stroke:#181818;stroke-width:1.0;" x1="156" x2="198" y1="368.625" y2="368.625"/><line style="stroke:#181818;stroke-width:1.0;" x1="198" x2="198" y1="368.625" y2="381.625"/><line style="stroke:#181818;stroke-width:1.0;" x1="157" x2="198" y1="381.625" y2="381.625"/><polygon fill="#181818" points="167,377.625,157,381.625,167,385.625,163,381.625" style="stroke:#181818;stroke-width:1.0;"/><text fill="#000000" font-family="sans-serif" font-size="13" font-weight="bold" lengthAdjust="spacing" textLength="18" x="163" y="363.5591">10</text><text fill="#000000" font-family="sans-serif" font-size="13" lengthAdjust="spacing" textLength="141" x="185" y="363.5591">PutDataBlockToCache</text><line style="stroke:#181818;stroke-width:1.0;" x1="156" x2="198" y1="410.7578" y2="410.7578"/><line style="stroke:#181818;stroke-width:1.0;" x1="198" x2="198" y1="410.7578" y2="423.7578"/><line style="stroke:#181818;stroke-width:1.0;" x1="157" x2="198" y1="423.7578" y2="423.7578"/><polygon fill="#181818" points="167,419.7578,157,423.7578,167,427.7578,163,423.7578" style="stroke:#181818;stroke-width:1.0;"/><text fill="#000000" font-family="sans-serif" font-size="13" font-weight="bold" lengthAdjust="spacing" textLength="18" x="163" y="405.6919">11</text><text fill="#000000" font-family="sans-serif" font-size="13" lengthAdjust="spacing" textLength="124" x="185" y="405.6919">InsertEntryToCache</text><polygon fill="#181818" points="39,448.8906,29,452.8906,39,456.8906,35,452.8906" style="stroke:#181818;stroke-width:1.0;"/><line style="stroke:#181818;stroke-width:1.0;" x1="33" x2="150" y1="452.8906" y2="452.8906"/><text fill="#000000" font-family="sans-serif" font-size="13" font-weight="bold" lengthAdjust="spacing" textLength="18" x="45" y="447.8247">12</text><text fill="#000000" font-family="sans-serif" font-size="13" lengthAdjust="spacing" textLength="4" x="67" y="447.8247"> </text></g></svg>