<?xml version="1.0" encoding="UTF-8" standalone="no"?><svg xmlns="http://www.w3.org/2000/svg" xmlns:xlink="http://www.w3.org/1999/xlink" contentStyleType="text/css" height="660px" preserveAspectRatio="none" style="width:1646px;height:660px;background:#FFFFFF;" version="1.1" viewBox="0 0 1646 660" width="1646px" zoomAndPan="magnify"><defs/><g><g id="elem_TableReader"><rect codeLine="2" fill="#F1F1F1" height="48" id="TableReader" rx="2.5" ry="2.5" style="stroke:#181818;stroke-width:0.5;" width="120" x="481.5" y="7"/><ellipse cx="496.5" cy="23" fill="#ADD1B2" rx="11" ry="11" style="stroke:#181818;stroke-width:1.0;"/><path d="M499.4688,28.6406 Q498.8906,28.9375 498.25,29.0781 Q497.6094,29.2344 496.9063,29.2344 Q494.4063,29.2344 493.0781,27.5938 Q491.7656,25.9375 491.7656,22.8125 Q491.7656,19.6875 493.0781,18.0313 Q494.4063,16.375 496.9063,16.375 Q497.6094,16.375 498.25,16.5313 Q498.9063,16.6875 499.4688,16.9844 L499.4688,19.7031 Q498.8438,19.125 498.25,18.8594 Q497.6563,18.5781 497.0313,18.5781 Q495.6875,18.5781 495,19.6563 Q494.3125,20.7188 494.3125,22.8125 Q494.3125,24.9063 495,25.9844 Q495.6875,27.0469 497.0313,27.0469 Q497.6563,27.0469 498.25,26.7813 Q498.8438,26.5 499.4688,25.9219 L499.4688,28.6406 Z " fill="#000000"/><text fill="#000000" font-family="sans-serif" font-size="14" lengthAdjust="spacing" textLength="88" x="510.5" y="27.8467">TableReader</text><line style="stroke:#181818;stroke-width:0.5;" x1="482.5" x2="600.5" y1="39" y2="39"/><line style="stroke:#181818;stroke-width:0.5;" x1="482.5" x2="600.5" y1="47" y2="47"/></g><g id="elem_BlockBasedTable"><rect codeLine="5" fill="#F1F1F1" height="96.8906" id="BlockBasedTable" rx="2.5" ry="2.5" style="stroke:#181818;stroke-width:0.5;" width="372" x="355.5" y="116"/><ellipse cx="477.25" cy="132" fill="#ADD1B2" rx="11" ry="11" style="stroke:#181818;stroke-width:1.0;"/><path d="M480.2188,137.6406 Q479.6406,137.9375 479,138.0781 Q478.3594,138.2344 477.6563,138.2344 Q475.1563,138.2344 473.8281,136.5938 Q472.5156,134.9375 472.5156,131.8125 Q472.5156,128.6875 473.8281,127.0313 Q475.1563,125.375 477.6563,125.375 Q478.3594,125.375 479,125.5313 Q479.6563,125.6875 480.2188,125.9844 L480.2188,128.7031 Q479.5938,128.125 479,127.8594 Q478.4063,127.5781 477.7813,127.5781 Q476.4375,127.5781 475.75,128.6563 Q475.0625,129.7188 475.0625,131.8125 Q475.0625,133.9063 475.75,134.9844 Q476.4375,136.0469 477.7813,136.0469 Q478.4063,136.0469 479,135.7813 Q479.5938,135.5 480.2188,134.9219 L480.2188,137.6406 Z " fill="#000000"/><text fill="#000000" font-family="sans-serif" font-size="14" lengthAdjust="spacing" textLength="120" x="497.75" y="136.8467">BlockBasedTable</text><line style="stroke:#181818;stroke-width:0.5;" x1="356.5" x2="726.5" y1="148" y2="148"/><line style="stroke:#181818;stroke-width:0.5;" x1="356.5" x2="726.5" y1="156" y2="156"/><rect fill="#F24D5C" height="6" style="stroke:#C82930;stroke-width:1.0;" width="6" x="363.5" y="166.6484"/><text fill="#000000" font-family="sans-serif" font-size="14" lengthAdjust="spacing" textLength="346" x="375.5" y="172.9951">CreateIndexReader(...,IndexReader* index_reader)</text><rect fill="#F24D5C" height="6" style="stroke:#C82930;stroke-width:1.0;" width="6" x="363.5" y="182.9453"/><text fill="#000000" font-family="sans-serif" font-size="14" lengthAdjust="spacing" textLength="117" x="375.5" y="189.292">RetrieveBlock(...)</text><rect fill="#F24D5C" height="6" style="stroke:#C82930;stroke-width:1.0;" width="6" x="363.5" y="199.2422"/><text fill="#000000" font-family="sans-serif" font-size="14" lengthAdjust="spacing" textLength="172" x="375.5" y="205.5889">FullFilterKeyMayMatch(...)</text></g><g id="elem_Block"><rect codeLine="11" fill="#F1F1F1" height="80.5938" id="Block" rx="2.5" ry="2.5" style="stroke:#181818;stroke-width:0.5;" width="630" x="540.5" y="415"/><ellipse cx="832.25" cy="431" fill="#ADD1B2" rx="11" ry="11" style="stroke:#181818;stroke-width:1.0;"/><path d="M835.2188,436.6406 Q834.6406,436.9375 834,437.0781 Q833.3594,437.2344 832.6563,437.2344 Q830.1563,437.2344 828.8281,435.5938 Q827.5156,433.9375 827.5156,430.8125 Q827.5156,427.6875 828.8281,426.0313 Q830.1563,424.375 832.6563,424.375 Q833.3594,424.375 834,424.5313 Q834.6563,424.6875 835.2188,424.9844 L835.2188,427.7031 Q834.5938,427.125 834,426.8594 Q833.4063,426.5781 832.7813,426.5781 Q831.4375,426.5781 830.75,427.6563 Q830.0625,428.7188 830.0625,430.8125 Q830.0625,432.9063 830.75,433.9844 Q831.4375,435.0469 832.7813,435.0469 Q833.4063,435.0469 834,434.7813 Q834.5938,434.5 835.2188,433.9219 L835.2188,436.6406 Z " fill="#000000"/><text fill="#000000" font-family="sans-serif" font-size="14" lengthAdjust="spacing" textLength="38" x="852.75" y="435.8467">Block</text><line style="stroke:#181818;stroke-width:0.5;" x1="541.5" x2="1169.5" y1="447" y2="447"/><line style="stroke:#181818;stroke-width:0.5;" x1="541.5" x2="1169.5" y1="455" y2="455"/><ellipse cx="551.5" cy="468.6484" fill="#84BE84" rx="3" ry="3" style="stroke:#038048;stroke-width:1.0;"/><text fill="#000000" font-family="sans-serif" font-size="14" lengthAdjust="spacing" textLength="381" x="560.5" y="471.9951">DataBlockIter* NewDataIterator(...,DataBlockIter* iter,...)</text><ellipse cx="551.5" cy="484.9453" fill="#84BE84" rx="3" ry="3" style="stroke:#038048;stroke-width:1.0;"/><text fill="#000000" font-family="sans-serif" font-size="14" lengthAdjust="spacing" textLength="604" x="560.5" y="488.292">IndexBlockIter* NewIndexIterator(...,IndexBlockIter* iter,...,BlockPrefixIndex* prefix_index)</text></g><g id="elem_IndexReader"><rect codeLine="16" fill="#F1F1F1" height="64.2969" id="IndexReader" rx="2.5" ry="2.5" style="stroke:#181818;stroke-width:0.5;" width="522" x="594.5" y="274"/><ellipse cx="807.75" cy="290" fill="#ADD1B2" rx="11" ry="11" style="stroke:#181818;stroke-width:1.0;"/><path d="M810.7188,295.6406 Q810.1406,295.9375 809.5,296.0781 Q808.8594,296.2344 808.1563,296.2344 Q805.6563,296.2344 804.3281,294.5938 Q803.0156,292.9375 803.0156,289.8125 Q803.0156,286.6875 804.3281,285.0313 Q805.6563,283.375 808.1563,283.375 Q808.8594,283.375 809.5,283.5313 Q810.1563,283.6875 810.7188,283.9844 L810.7188,286.7031 Q810.0938,286.125 809.5,285.8594 Q808.9063,285.5781 808.2813,285.5781 Q806.9375,285.5781 806.25,286.6563 Q805.5625,287.7188 805.5625,289.8125 Q805.5625,291.9063 806.25,292.9844 Q806.9375,294.0469 808.2813,294.0469 Q808.9063,294.0469 809.5,293.7813 Q810.0938,293.5 810.7188,292.9219 L810.7188,295.6406 Z " fill="#000000"/><text fill="#000000" font-family="sans-serif" font-size="14" lengthAdjust="spacing" textLength="87" x="828.25" y="294.8467">IndexReader</text><line style="stroke:#181818;stroke-width:0.5;" x1="595.5" x2="1115.5" y1="306" y2="306"/><line style="stroke:#181818;stroke-width:0.5;" x1="595.5" x2="1115.5" y1="314" y2="314"/><ellipse cx="605.5" cy="327.6484" fill="#84BE84" rx="3" ry="3" style="stroke:#038048;stroke-width:1.0;"/><text fill="#000000" font-family="sans-serif" font-size="14" lengthAdjust="spacing" textLength="496" x="614.5" y="330.9951">InternalIteratorBase&lt;IndexValue&gt;* NewIterator(...,IndexBlockIter *iter,...)</text></g><g id="elem_BlockPrefixIndex"><rect codeLine="20" fill="#F1F1F1" height="48" id="BlockPrefixIndex" rx="2.5" ry="2.5" style="stroke:#181818;stroke-width:0.5;" width="144" x="783.5" y="589.5"/><ellipse cx="798.5" cy="605.5" fill="#ADD1B2" rx="11" ry="11" style="stroke:#181818;stroke-width:1.0;"/><path d="M801.4688,611.1406 Q800.8906,611.4375 800.25,611.5781 Q799.6094,611.7344 798.9063,611.7344 Q796.4063,611.7344 795.0781,610.0938 Q793.7656,608.4375 793.7656,605.3125 Q793.7656,602.1875 795.0781,600.5313 Q796.4063,598.875 798.9063,598.875 Q799.6094,598.875 800.25,599.0313 Q800.9063,599.1875 801.4688,599.4844 L801.4688,602.2031 Q800.8438,601.625 800.25,601.3594 Q799.6563,601.0781 799.0313,601.0781 Q797.6875,601.0781 797,602.1563 Q796.3125,603.2188 796.3125,605.3125 Q796.3125,607.4063 797,608.4844 Q797.6875,609.5469 799.0313,609.5469 Q799.6563,609.5469 800.25,609.2813 Q800.8438,609 801.4688,608.4219 L801.4688,611.1406 Z " fill="#000000"/><text fill="#000000" font-family="sans-serif" font-size="14" lengthAdjust="spacing" textLength="112" x="812.5" y="610.3467">BlockPrefixIndex</text><line style="stroke:#181818;stroke-width:0.5;" x1="784.5" x2="926.5" y1="621.5" y2="621.5"/><line style="stroke:#181818;stroke-width:0.5;" x1="784.5" x2="926.5" y1="629.5" y2="629.5"/></g><g id="elem_IndexReaderCommon"><rect codeLine="23" fill="#F1F1F1" height="48" id="IndexReaderCommon" rx="2.5" ry="2.5" style="stroke:#181818;stroke-width:0.5;" width="182" x="323.5" y="431.5"/><ellipse cx="338.5" cy="447.5" fill="#ADD1B2" rx="11" ry="11" style="stroke:#181818;stroke-width:1.0;"/><path d="M341.4688,453.1406 Q340.8906,453.4375 340.25,453.5781 Q339.6094,453.7344 338.9063,453.7344 Q336.4063,453.7344 335.0781,452.0938 Q333.7656,450.4375 333.7656,447.3125 Q333.7656,444.1875 335.0781,442.5313 Q336.4063,440.875 338.9063,440.875 Q339.6094,440.875 340.25,441.0313 Q340.9063,441.1875 341.4688,441.4844 L341.4688,444.2031 Q340.8438,443.625 340.25,443.3594 Q339.6563,443.0781 339.0313,443.0781 Q337.6875,443.0781 337,444.1563 Q336.3125,445.2188 336.3125,447.3125 Q336.3125,449.4063 337,450.4844 Q337.6875,451.5469 339.0313,451.5469 Q339.6563,451.5469 340.25,451.2813 Q340.8438,451 341.4688,450.4219 L341.4688,453.1406 Z " fill="#000000"/><text fill="#000000" font-family="sans-serif" font-size="14" lengthAdjust="spacing" textLength="150" x="352.5" y="452.3467">IndexReaderCommon</text><line style="stroke:#181818;stroke-width:0.5;" x1="324.5" x2="504.5" y1="463.5" y2="463.5"/><line style="stroke:#181818;stroke-width:0.5;" x1="324.5" x2="504.5" y1="471.5" y2="471.5"/></g><g id="elem_BinarySearchIndexReader"><rect codeLine="26" fill="#F1F1F1" height="64.2969" id="BinarySearchIndexReader" rx="2.5" ry="2.5" style="stroke:#181818;stroke-width:0.5;" width="285" x="272" y="581.5"/><ellipse cx="321.75" cy="597.5" fill="#ADD1B2" rx="11" ry="11" style="stroke:#181818;stroke-width:1.0;"/><path d="M324.7188,603.1406 Q324.1406,603.4375 323.5,603.5781 Q322.8594,603.7344 322.1563,603.7344 Q319.6563,603.7344 318.3281,602.0938 Q317.0156,600.4375 317.0156,597.3125 Q317.0156,594.1875 318.3281,592.5313 Q319.6563,590.875 322.1563,590.875 Q322.8594,590.875 323.5,591.0313 Q324.1563,591.1875 324.7188,591.4844 L324.7188,594.2031 Q324.0938,593.625 323.5,593.3594 Q322.9063,593.0781 322.2813,593.0781 Q320.9375,593.0781 320.25,594.1563 Q319.5625,595.2188 319.5625,597.3125 Q319.5625,599.4063 320.25,600.4844 Q320.9375,601.5469 322.2813,601.5469 Q322.9063,601.5469 323.5,601.2813 Q324.0938,601 324.7188,600.4219 L324.7188,603.1406 Z " fill="#000000"/><text fill="#000000" font-family="sans-serif" font-size="14" lengthAdjust="spacing" textLength="177" x="342.25" y="602.3467">BinarySearchIndexReader</text><line style="stroke:#181818;stroke-width:0.5;" x1="273" x2="556" y1="613.5" y2="613.5"/><line style="stroke:#181818;stroke-width:0.5;" x1="273" x2="556" y1="621.5" y2="621.5"/><ellipse cx="283" cy="635.1484" fill="#84BE84" rx="3" ry="3" style="stroke:#038048;stroke-width:1.0;"/><text fill="#000000" font-family="sans-serif" font-size="14" lengthAdjust="spacing" textLength="259" x="292" y="638.4951">Create(...,IndexReader* index_reader)</text></g><g id="elem_InternalIteratorBase"><rect codeLine="30" fill="#F1F1F1" height="48" id="InternalIteratorBase" rx="2.5" ry="2.5" style="stroke:#181818;stroke-width:0.5;" width="213" x="1329" y="140.5"/><ellipse cx="1344" cy="156.5" fill="#ADD1B2" rx="11" ry="11" style="stroke:#181818;stroke-width:1.0;"/><path d="M1346.9688,162.1406 Q1346.3906,162.4375 1345.75,162.5781 Q1345.1094,162.7344 1344.4063,162.7344 Q1341.9063,162.7344 1340.5781,161.0938 Q1339.2656,159.4375 1339.2656,156.3125 Q1339.2656,153.1875 1340.5781,151.5313 Q1341.9063,149.875 1344.4063,149.875 Q1345.1094,149.875 1345.75,150.0313 Q1346.4063,150.1875 1346.9688,150.4844 L1346.9688,153.2031 Q1346.3438,152.625 1345.75,152.3594 Q1345.1563,152.0781 1344.5313,152.0781 Q1343.1875,152.0781 1342.5,153.1563 Q1341.8125,154.2188 1341.8125,156.3125 Q1341.8125,158.4063 1342.5,159.4844 Q1343.1875,160.5469 1344.5313,160.5469 Q1345.1563,160.5469 1345.75,160.2813 Q1346.3438,160 1346.9688,159.4219 L1346.9688,162.1406 Z " fill="#000000"/><text fill="#000000" font-family="sans-serif" font-size="14" lengthAdjust="spacing" textLength="135" x="1358" y="161.3467">InternalIteratorBase</text><rect fill="#FFFFFF" height="15.9688" style="stroke:#181818;stroke-width:1.0;stroke-dasharray:2.0,2.0;" width="44" x="1501" y="137.5"/><text fill="#000000" font-family="sans-serif" font-size="12" font-style="italic" lengthAdjust="spacing" textLength="42" x="1502" y="149.6387">TValue</text><line style="stroke:#181818;stroke-width:0.5;" x1="1330" x2="1541" y1="172.5" y2="172.5"/><line style="stroke:#181818;stroke-width:0.5;" x1="1330" x2="1541" y1="180.5" y2="180.5"/></g><g id="elem_BlockIter"><rect codeLine="33" fill="#F1F1F1" height="64.2969" id="BlockIter" rx="2.5" ry="2.5" style="stroke:#181818;stroke-width:0.5;" width="138" x="1366.5" y="274"/><ellipse cx="1381.5" cy="290" fill="#ADD1B2" rx="11" ry="11" style="stroke:#181818;stroke-width:1.0;"/><path d="M1384.4688,295.6406 Q1383.8906,295.9375 1383.25,296.0781 Q1382.6094,296.2344 1381.9063,296.2344 Q1379.4063,296.2344 1378.0781,294.5938 Q1376.7656,292.9375 1376.7656,289.8125 Q1376.7656,286.6875 1378.0781,285.0313 Q1379.4063,283.375 1381.9063,283.375 Q1382.6094,283.375 1383.25,283.5313 Q1383.9063,283.6875 1384.4688,283.9844 L1384.4688,286.7031 Q1383.8438,286.125 1383.25,285.8594 Q1382.6563,285.5781 1382.0313,285.5781 Q1380.6875,285.5781 1380,286.6563 Q1379.3125,287.7188 1379.3125,289.8125 Q1379.3125,291.9063 1380,292.9844 Q1380.6875,294.0469 1382.0313,294.0469 Q1382.6563,294.0469 1383.25,293.7813 Q1383.8438,293.5 1384.4688,292.9219 L1384.4688,295.6406 Z " fill="#000000"/><text fill="#000000" font-family="sans-serif" font-size="14" lengthAdjust="spacing" textLength="60" x="1395.5" y="294.8467">BlockIter</text><rect fill="#FFFFFF" height="15.9688" style="stroke:#181818;stroke-width:1.0;stroke-dasharray:2.0,2.0;" width="44" x="1463.5" y="271"/><text fill="#000000" font-family="sans-serif" font-size="12" font-style="italic" lengthAdjust="spacing" textLength="42" x="1464.5" y="283.1387">TValue</text><line style="stroke:#181818;stroke-width:0.5;" x1="1367.5" x2="1503.5" y1="306" y2="306"/><line style="stroke:#181818;stroke-width:0.5;" x1="1367.5" x2="1503.5" y1="314" y2="314"/><ellipse cx="1377.5" cy="327.6484" fill="#84BE84" rx="3" ry="3" style="stroke:#038048;stroke-width:1.0;"/><text fill="#000000" font-family="sans-serif" font-size="14" lengthAdjust="spacing" textLength="73" x="1386.5" y="330.9951">SeekImpl()</text></g><g id="elem_IndexBlockIter"><rect codeLine="37" fill="#F1F1F1" height="48" id="IndexBlockIter" rx="2.5" ry="2.5" style="stroke:#181818;stroke-width:0.5;" width="129" x="1206" y="431.5"/><ellipse cx="1221" cy="447.5" fill="#ADD1B2" rx="11" ry="11" style="stroke:#181818;stroke-width:1.0;"/><path d="M1223.9688,453.1406 Q1223.3906,453.4375 1222.75,453.5781 Q1222.1094,453.7344 1221.4063,453.7344 Q1218.9063,453.7344 1217.5781,452.0938 Q1216.2656,450.4375 1216.2656,447.3125 Q1216.2656,444.1875 1217.5781,442.5313 Q1218.9063,440.875 1221.4063,440.875 Q1222.1094,440.875 1222.75,441.0313 Q1223.4063,441.1875 1223.9688,441.4844 L1223.9688,444.2031 Q1223.3438,443.625 1222.75,443.3594 Q1222.1563,443.0781 1221.5313,443.0781 Q1220.1875,443.0781 1219.5,444.1563 Q1218.8125,445.2188 1218.8125,447.3125 Q1218.8125,449.4063 1219.5,450.4844 Q1220.1875,451.5469 1221.5313,451.5469 Q1222.1563,451.5469 1222.75,451.2813 Q1223.3438,451 1223.9688,450.4219 L1223.9688,453.1406 Z " fill="#000000"/><text fill="#000000" font-family="sans-serif" font-size="14" lengthAdjust="spacing" textLength="97" x="1235" y="452.3467">IndexBlockIter</text><line style="stroke:#181818;stroke-width:0.5;" x1="1207" x2="1334" y1="463.5" y2="463.5"/><line style="stroke:#181818;stroke-width:0.5;" x1="1207" x2="1334" y1="471.5" y2="471.5"/></g><g id="elem_DataBlockIter"><rect codeLine="40" fill="#F1F1F1" height="80.5938" id="DataBlockIter" rx="2.5" ry="2.5" style="stroke:#181818;stroke-width:0.5;" width="434" x="1156.5" y="573"/><ellipse cx="1323.25" cy="589" fill="#ADD1B2" rx="11" ry="11" style="stroke:#181818;stroke-width:1.0;"/><path d="M1326.2188,594.6406 Q1325.6406,594.9375 1325,595.0781 Q1324.3594,595.2344 1323.6563,595.2344 Q1321.1563,595.2344 1319.8281,593.5938 Q1318.5156,591.9375 1318.5156,588.8125 Q1318.5156,585.6875 1319.8281,584.0313 Q1321.1563,582.375 1323.6563,582.375 Q1324.3594,582.375 1325,582.5313 Q1325.6563,582.6875 1326.2188,582.9844 L1326.2188,585.7031 Q1325.5938,585.125 1325,584.8594 Q1324.4063,584.5781 1323.7813,584.5781 Q1322.4375,584.5781 1321.75,585.6563 Q1321.0625,586.7188 1321.0625,588.8125 Q1321.0625,590.9063 1321.75,591.9844 Q1322.4375,593.0469 1323.7813,593.0469 Q1324.4063,593.0469 1325,592.7813 Q1325.5938,592.5 1326.2188,591.9219 L1326.2188,594.6406 Z " fill="#000000"/><text fill="#000000" font-family="sans-serif" font-size="14" lengthAdjust="spacing" textLength="92" x="1343.75" y="593.8467">DataBlockIter</text><line style="stroke:#181818;stroke-width:0.5;" x1="1157.5" x2="1589.5" y1="605" y2="605"/><line style="stroke:#181818;stroke-width:0.5;" x1="1157.5" x2="1589.5" y1="613" y2="613"/><ellipse cx="1167.5" cy="626.6484" fill="#84BE84" rx="3" ry="3" style="stroke:#038048;stroke-width:1.0;"/><text fill="#000000" font-family="sans-serif" font-size="14" lengthAdjust="spacing" textLength="408" x="1176.5" y="629.9951">Initialize(...,DataBlockHashIndex* data_block_hash_index,...)</text><ellipse cx="1167.5" cy="642.9453" fill="#84BE84" rx="3" ry="3" style="stroke:#038048;stroke-width:1.0;"/><text fill="#000000" font-family="sans-serif" font-size="14" lengthAdjust="spacing" textLength="92" x="1176.5" y="646.292">SeekForGet()</text></g><g id="elem_MetaBlockIter"><rect codeLine="45" fill="#F1F1F1" height="48" id="MetaBlockIter" rx="2.5" ry="2.5" style="stroke:#181818;stroke-width:0.5;" width="126" x="1371.5" y="431.5"/><ellipse cx="1386.5" cy="447.5" fill="#ADD1B2" rx="11" ry="11" style="stroke:#181818;stroke-width:1.0;"/><path d="M1389.4688,453.1406 Q1388.8906,453.4375 1388.25,453.5781 Q1387.6094,453.7344 1386.9063,453.7344 Q1384.4063,453.7344 1383.0781,452.0938 Q1381.7656,450.4375 1381.7656,447.3125 Q1381.7656,444.1875 1383.0781,442.5313 Q1384.4063,440.875 1386.9063,440.875 Q1387.6094,440.875 1388.25,441.0313 Q1388.9063,441.1875 1389.4688,441.4844 L1389.4688,444.2031 Q1388.8438,443.625 1388.25,443.3594 Q1387.6563,443.0781 1387.0313,443.0781 Q1385.6875,443.0781 1385,444.1563 Q1384.3125,445.2188 1384.3125,447.3125 Q1384.3125,449.4063 1385,450.4844 Q1385.6875,451.5469 1387.0313,451.5469 Q1387.6563,451.5469 1388.25,451.2813 Q1388.8438,451 1389.4688,450.4219 L1389.4688,453.1406 Z " fill="#000000"/><text fill="#000000" font-family="sans-serif" font-size="14" lengthAdjust="spacing" textLength="94" x="1400.5" y="452.3467">MetaBlockIter</text><line style="stroke:#181818;stroke-width:0.5;" x1="1372.5" x2="1496.5" y1="463.5" y2="463.5"/><line style="stroke:#181818;stroke-width:0.5;" x1="1372.5" x2="1496.5" y1="471.5" y2="471.5"/></g><g id="elem_FilterBlockReader"><rect codeLine="48" fill="#F1F1F1" height="48" id="FilterBlockReader" rx="2.5" ry="2.5" style="stroke:#181818;stroke-width:0.5;" width="153" x="269" y="282"/><ellipse cx="284" cy="298" fill="#ADD1B2" rx="11" ry="11" style="stroke:#181818;stroke-width:1.0;"/><path d="M286.9688,303.6406 Q286.3906,303.9375 285.75,304.0781 Q285.1094,304.2344 284.4063,304.2344 Q281.9063,304.2344 280.5781,302.5938 Q279.2656,300.9375 279.2656,297.8125 Q279.2656,294.6875 280.5781,293.0313 Q281.9063,291.375 284.4063,291.375 Q285.1094,291.375 285.75,291.5313 Q286.4063,291.6875 286.9688,291.9844 L286.9688,294.7031 Q286.3438,294.125 285.75,293.8594 Q285.1563,293.5781 284.5313,293.5781 Q283.1875,293.5781 282.5,294.6563 Q281.8125,295.7188 281.8125,297.8125 Q281.8125,299.9063 282.5,300.9844 Q283.1875,302.0469 284.5313,302.0469 Q285.1563,302.0469 285.75,301.7813 Q286.3438,301.5 286.9688,300.9219 L286.9688,303.6406 Z " fill="#000000"/><text fill="#000000" font-family="sans-serif" font-size="14" lengthAdjust="spacing" textLength="121" x="298" y="302.8467">FilterBlockReader</text><line style="stroke:#181818;stroke-width:0.5;" x1="270" x2="421" y1="314" y2="314"/><line style="stroke:#181818;stroke-width:0.5;" x1="270" x2="421" y1="322" y2="322"/></g><g id="elem_FilterBlockReaderCommon"><rect codeLine="51" fill="#F1F1F1" height="48" id="FilterBlockReaderCommon" rx="2.5" ry="2.5" style="stroke:#181818;stroke-width:0.5;" width="281" x="7" y="431.5"/><ellipse cx="22" cy="447.5" fill="#ADD1B2" rx="11" ry="11" style="stroke:#181818;stroke-width:1.0;"/><path d="M24.9688,453.1406 Q24.3906,453.4375 23.75,453.5781 Q23.1094,453.7344 22.4063,453.7344 Q19.9063,453.7344 18.5781,452.0938 Q17.2656,450.4375 17.2656,447.3125 Q17.2656,444.1875 18.5781,442.5313 Q19.9063,440.875 22.4063,440.875 Q23.1094,440.875 23.75,441.0313 Q24.4063,441.1875 24.9688,441.4844 L24.9688,444.2031 Q24.3438,443.625 23.75,443.3594 Q23.1563,443.0781 22.5313,443.0781 Q21.1875,443.0781 20.5,444.1563 Q19.8125,445.2188 19.8125,447.3125 Q19.8125,449.4063 20.5,450.4844 Q21.1875,451.5469 22.5313,451.5469 Q23.1563,451.5469 23.75,451.2813 Q24.3438,451 24.9688,450.4219 L24.9688,453.1406 Z " fill="#000000"/><text fill="#000000" font-family="sans-serif" font-size="14" lengthAdjust="spacing" textLength="184" x="36" y="452.3467">FilterBlockReaderCommon</text><rect fill="#FFFFFF" height="15.9688" style="stroke:#181818;stroke-width:1.0;stroke-dasharray:2.0,2.0;" width="63" x="228" y="428.5"/><text fill="#000000" font-family="sans-serif" font-size="12" font-style="italic" lengthAdjust="spacing" textLength="61" x="229" y="440.6387">TBlocklike</text><line style="stroke:#181818;stroke-width:0.5;" x1="8" x2="287" y1="463.5" y2="463.5"/><line style="stroke:#181818;stroke-width:0.5;" x1="8" x2="287" y1="471.5" y2="471.5"/></g><g id="elem_FullFilterBlockReader"><rect codeLine="54" fill="#F1F1F1" height="80.5938" id="FullFilterBlockReader" rx="2.5" ry="2.5" style="stroke:#181818;stroke-width:0.5;" width="176" x="59.5" y="573"/><ellipse cx="74.5" cy="589" fill="#ADD1B2" rx="11" ry="11" style="stroke:#181818;stroke-width:1.0;"/><path d="M77.4688,594.6406 Q76.8906,594.9375 76.25,595.0781 Q75.6094,595.2344 74.9063,595.2344 Q72.4063,595.2344 71.0781,593.5938 Q69.7656,591.9375 69.7656,588.8125 Q69.7656,585.6875 71.0781,584.0313 Q72.4063,582.375 74.9063,582.375 Q75.6094,582.375 76.25,582.5313 Q76.9063,582.6875 77.4688,582.9844 L77.4688,585.7031 Q76.8438,585.125 76.25,584.8594 Q75.6563,584.5781 75.0313,584.5781 Q73.6875,584.5781 73,585.6563 Q72.3125,586.7188 72.3125,588.8125 Q72.3125,590.9063 73,591.9844 Q73.6875,593.0469 75.0313,593.0469 Q75.6563,593.0469 76.25,592.7813 Q76.8438,592.5 77.4688,591.9219 L77.4688,594.6406 Z " fill="#000000"/><text fill="#000000" font-family="sans-serif" font-size="14" lengthAdjust="spacing" textLength="144" x="88.5" y="593.8467">FullFilterBlockReader</text><line style="stroke:#181818;stroke-width:0.5;" x1="60.5" x2="234.5" y1="605" y2="605"/><line style="stroke:#181818;stroke-width:0.5;" x1="60.5" x2="234.5" y1="613" y2="613"/><ellipse cx="70.5" cy="626.6484" fill="#84BE84" rx="3" ry="3" style="stroke:#038048;stroke-width:1.0;"/><text fill="#000000" font-family="sans-serif" font-size="14" lengthAdjust="spacing" textLength="116" x="79.5" y="629.9951">KeyMayMatch(...)</text><ellipse cx="70.5" cy="642.9453" fill="#84BE84" rx="3" ry="3" style="stroke:#038048;stroke-width:1.0;"/><text fill="#000000" font-family="sans-serif" font-size="14" lengthAdjust="spacing" textLength="91" x="79.5" y="646.292">MayMatch(...)</text></g><g id="link_FilterBlockReader_FilterBlockReaderCommon"><path codeLine="59" d="M298.343,342.13 C261.267,369.749 210.679,407.435 178.546,431.372 " fill="none" id="FilterBlockReader-backto-FilterBlockReaderCommon" style="stroke:#181818;stroke-width:1.0;stroke-dasharray:7.0,7.0;"/><polygon fill="none" points="294.342,336.381,314.562,330.047,302.706,347.609,294.342,336.381" style="stroke:#181818;stroke-width:1.0;"/></g><g id="link_FilterBlockReaderCommon_FullFilterBlockReader"><path codeLine="61" d="M147.5,499.558 C147.5,522.436 147.5,550.371 147.5,572.7341 " fill="none" id="FilterBlockReaderCommon-backto-FullFilterBlockReader" style="stroke:#181818;stroke-width:1.0;stroke-dasharray:7.0,7.0;"/><polygon fill="none" points="140.5,499.518,147.5,479.518,154.5,499.518,140.5,499.518" style="stroke:#181818;stroke-width:1.0;"/><text fill="#000000" font-family="sans-serif" font-size="13" lengthAdjust="spacing" textLength="203" x="148.5" y="539.0669">TBlocklike=ParsedFullFilterBlock</text></g><g id="link_TableReader_BlockBasedTable"><path codeLine="63" d="M541.5,75.331 C541.5,88.276 541.5,102.539 541.5,115.75 " fill="none" id="TableReader-backto-BlockBasedTable" style="stroke:#181818;stroke-width:1.0;stroke-dasharray:7.0,7.0;"/><polygon fill="none" points="534.5,75.207,541.5,55.207,548.5,75.207,534.5,75.207" style="stroke:#181818;stroke-width:1.0;"/></g><g id="link_IndexReader_IndexReaderCommon"><path codeLine="65" d="M737.213,344.19 C673.421,364.541 593.444,390.531 522.5,415 C507.495,420.175 491.395,425.945 476.326,431.442 " fill="none" id="IndexReader-backto-IndexReaderCommon" style="stroke:#181818;stroke-width:1.0;stroke-dasharray:7.0,7.0;"/><polygon fill="none" points="735.282,337.458,756.463,338.063,739.528,350.799,735.282,337.458" style="stroke:#181818;stroke-width:1.0;"/></g><g id="link_IndexReaderCommon_BinarySearchIndexReader"><path codeLine="67" d="M414.5,499.812 C414.5,525.678 414.5,557.9342 414.5,581.3002 " fill="none" id="IndexReaderCommon-backto-BinarySearchIndexReader" style="stroke:#181818;stroke-width:1.0;stroke-dasharray:7.0,7.0;"/><polygon fill="none" points="407.5,499.518,414.5,479.518,421.5,499.518,407.5,499.518" style="stroke:#181818;stroke-width:1.0;"/></g><g id="link_InternalIteratorBase_BlockIter"><path codeLine="69" d="M1435.5,208.72 C1435.5,229.787 1435.5,254.65 1435.5,273.832 " fill="none" id="InternalIteratorBase-backto-BlockIter" style="stroke:#181818;stroke-width:1.0;stroke-dasharray:7.0,7.0;"/><polygon fill="none" points="1428.5,208.536,1435.5,188.536,1442.5,208.536,1428.5,208.536" style="stroke:#181818;stroke-width:1.0;"/></g><g id="link_BlockIter_IndexBlockIter"><path codeLine="71" d="M1347.68,334.151 C1330.29,342.753 1313.43,353.839 1300.5,368 C1284.42,385.605 1276.89,412.276 1273.4,431.346 " fill="none" id="BlockIter-backto-IndexBlockIter" style="stroke:#181818;stroke-width:1.0;stroke-dasharray:7.0,7.0;"/><polygon fill="none" points="1345.11,327.634,1366.23,325.913,1350.79,340.428,1345.11,327.634" style="stroke:#181818;stroke-width:1.0;"/><text fill="#000000" font-family="sans-serif" font-size="13" lengthAdjust="spacing" textLength="124" x="1301.5" y="381.0669">TValue=IndexValue</text></g><g id="link_BlockIter_DataBlockIter"><path codeLine="73" d="M1516.78,351.81 C1521.33,356.749 1525.33,362.138 1528.5,368 C1543.1,395.037 1593.27,353.698 1515.5,496 C1498.45,527.2 1469.31,553.322 1441.85,572.8707 " fill="none" id="BlockIter-backto-DataBlockIter" style="stroke:#181818;stroke-width:1.0;stroke-dasharray:7.0,7.0;"/><polygon fill="none" points="1511.96,356.891,1501.74,338.328,1521.3,346.466,1511.96,356.891" style="stroke:#181818;stroke-width:1.0;"/><text fill="#000000" font-family="sans-serif" font-size="13" lengthAdjust="spacing" textLength="84" x="1554.5" y="460.0669">TValue=Slice</text></g><g id="link_BlockIter_MetaBlockIter"><path codeLine="75" d="M1435.15,358.449 C1434.98,383.344 1434.79,411.981 1434.66,431.463 " fill="none" id="BlockIter-backto-MetaBlockIter" style="stroke:#181818;stroke-width:1.0;stroke-dasharray:7.0,7.0;"/><polygon fill="none" points="1428.15,358.233,1435.29,338.281,1442.15,358.328,1428.15,358.233" style="stroke:#181818;stroke-width:1.0;"/><text fill="#000000" font-family="sans-serif" font-size="13" lengthAdjust="spacing" textLength="84" x="1435.5" y="381.0669">TValue=Slice</text></g><g id="link_IndexReader_IndexBlockIter"><path codeLine="77" d="M963.667,338.026 C1029.46,357.894 1114.74,385.431 1188.5,415 C1199.06,419.232 1210.16,424.207 1220.67,429.172 " fill="none" id="IndexReader-to-IndexBlockIter" style="stroke:#181818;stroke-width:1.0;stroke-dasharray:7.0,7.0;"/><polygon fill="#181818" points="1225.45,431.45,1219.055,423.9597,1220.9389,429.2937,1215.6049,431.1775,1225.45,431.45" style="stroke:#181818;stroke-width:1.0;"/></g><g id="link_IndexReader_Block"><path codeLine="79" d="M855.5,338.281 C855.5,359.036 855.5,386.599 855.5,409.674 " fill="none" id="IndexReader-to-Block" style="stroke:#181818;stroke-width:1.0;stroke-dasharray:7.0,7.0;"/><polygon fill="#181818" points="855.5,414.827,859.5,405.827,855.5,409.827,851.5,405.827,855.5,414.827" style="stroke:#181818;stroke-width:1.0;"/></g><g id="link_BlockBasedTable_IndexReader"><path codeLine="81" d="M648.683,213.118 C692.046,232.383 741.067,254.161 780.495,271.678 " fill="none" id="BlockBasedTable-to-IndexReader" style="stroke:#181818;stroke-width:1.0;stroke-dasharray:7.0,7.0;"/><polygon fill="#181818" points="785.255,273.793,778.6538,266.4838,780.6855,271.7632,775.4061,273.795,785.255,273.793" style="stroke:#181818;stroke-width:1.0;"/></g><g id="link_BlockBasedTable_FilterBlockReader"><path codeLine="83" d="M474.596,213.118 C443.648,235.145 408.084,260.457 382.13,278.929 " fill="none" id="BlockBasedTable-to-FilterBlockReader" style="stroke:#181818;stroke-width:1.0;stroke-dasharray:7.0,7.0;"/><polygon fill="#181818" points="378.049,281.834,387.7008,279.8738,382.1225,278.9346,383.0617,273.3562,378.049,281.834" style="stroke:#181818;stroke-width:1.0;"/></g><g id="link_Block_DataBlockIter"><path codeLine="85" d="M986.883,496.067 C1063.43,519.121 1159.81,548.145 1237.19,571.4486 " fill="none" id="Block-to-DataBlockIter" style="stroke:#181818;stroke-width:1.0;stroke-dasharray:7.0,7.0;"/><polygon fill="#181818" points="1242.26,572.9751,1234.7971,566.5482,1237.4727,571.5323,1232.4886,574.2079,1242.26,572.9751" style="stroke:#181818;stroke-width:1.0;"/></g><g id="link_BlockBasedTable_Block"><path codeLine="87" d="M539.604,213.041 C540.579,250.86 547.792,303.054 576.5,338 C604.116,371.616 643.094,395.677 683.182,412.845 " fill="none" id="BlockBasedTable-to-Block" style="stroke:#181818;stroke-width:1.0;stroke-dasharray:7.0,7.0;"/><polygon fill="#181818" points="688.076,414.905,681.331,407.7283,683.4672,412.9663,678.2291,415.1024,688.076,414.905" style="stroke:#181818;stroke-width:1.0;"/></g><g id="link_Block_BlockPrefixIndex"><path codeLine="89" d="M855.5,496.269 C855.5,523.743 855.5,559.6249 855.5,584.2104 " fill="none" id="Block-to-BlockPrefixIndex" style="stroke:#181818;stroke-width:1.0;stroke-dasharray:7.0,7.0;"/><polygon fill="#181818" points="855.5,589.2782,859.5,580.2782,855.5,584.2782,851.5,580.2782,855.5,589.2782" style="stroke:#181818;stroke-width:1.0;"/></g></g></svg>