<?xml version="1.0" encoding="UTF-8" standalone="no"?><svg xmlns="http://www.w3.org/2000/svg" xmlns:xlink="http://www.w3.org/1999/xlink" contentStyleType="text/css" height="551px" preserveAspectRatio="none" style="width:884px;height:551px;background:#FFFFFF;" version="1.1" viewBox="0 0 884 551" width="884px" zoomAndPan="magnify"><defs/><g><rect fill="#ADD1B2" height="430.7266" style="stroke:#181818;stroke-width:1.0;" width="10" x="123" y="67.4297"/><rect fill="#E3664A" height="351.4609" style="stroke:#181818;stroke-width:1.0;" width="10" x="128" y="146.6953"/><rect fill="#A9DCDF" height="121.5313" style="stroke:#181818;stroke-width:1.0;" width="10" x="133" y="188.8281"/><rect fill="#A9DCDF" height="121.5313" style="stroke:#181818;stroke-width:1.0;" width="10" x="133" y="347.4922"/><rect fill="#FFFFFF" height="58.2656" style="stroke:#181818;stroke-width:1.0;" width="10" x="344" y="252.0938"/><rect fill="#FFFFFF" height="58.2656" style="stroke:#181818;stroke-width:1.0;" width="10" x="528.5" y="410.7578"/><line style="stroke:#181818;stroke-width:0.5;stroke-dasharray:5.0,5.0;" x1="28" x2="28" y1="36.2969" y2="516.1563"/><line style="stroke:#181818;stroke-width:0.5;stroke-dasharray:5.0,5.0;" x1="128" x2="128" y1="36.2969" y2="516.1563"/><line style="stroke:#181818;stroke-width:0.5;stroke-dasharray:5.0,5.0;" x1="349" x2="349" y1="36.2969" y2="516.1563"/><line style="stroke:#181818;stroke-width:0.5;stroke-dasharray:5.0,5.0;" x1="533" x2="533" y1="36.2969" y2="516.1563"/><line style="stroke:#181818;stroke-width:0.5;stroke-dasharray:5.0,5.0;" x1="758" x2="758" y1="36.2969" y2="516.1563"/><rect fill="#E2E2F0" height="30.2969" rx="2.5" ry="2.5" style="stroke:#181818;stroke-width:0.5;" width="46" x="5" y="5"/><text fill="#000000" font-family="sans-serif" font-size="14" lengthAdjust="spacing" textLength="32" x="12" y="24.9951">User</text><rect fill="#E2E2F0" height="30.2969" rx="2.5" ry="2.5" style="stroke:#181818;stroke-width:0.5;" width="46" x="5" y="515.1563"/><text fill="#000000" font-family="sans-serif" font-size="14" lengthAdjust="spacing" textLength="32" x="12" y="535.1514">User</text><rect fill="#E2E2F0" height="30.2969" rx="2.5" ry="2.5" style="stroke:#181818;stroke-width:0.5;" width="134" x="61" y="5"/><text fill="#000000" font-family="sans-serif" font-size="14" lengthAdjust="spacing" textLength="120" x="68" y="24.9951">BlockBasedTable</text><rect fill="#E2E2F0" height="30.2969" rx="2.5" ry="2.5" style="stroke:#181818;stroke-width:0.5;" width="134" x="61" y="515.1563"/><text fill="#000000" font-family="sans-serif" font-size="14" lengthAdjust="spacing" textLength="120" x="68" y="535.1514">BlockBasedTable</text><rect fill="#E2E2F0" height="30.2969" rx="2.5" ry="2.5" style="stroke:#181818;stroke-width:0.5;" width="158" x="270" y="5"/><text fill="#000000" font-family="sans-serif" font-size="14" lengthAdjust="spacing" textLength="144" x="277" y="24.9951">FullFilterBlockReader</text><rect fill="#E2E2F0" height="30.2969" rx="2.5" ry="2.5" style="stroke:#181818;stroke-width:0.5;" width="158" x="270" y="515.1563"/><text fill="#000000" font-family="sans-serif" font-size="14" lengthAdjust="spacing" textLength="144" x="277" y="535.1514">FullFilterBlockReader</text><rect fill="#E2E2F0" height="30.2969" rx="2.5" ry="2.5" style="stroke:#181818;stroke-width:0.5;" width="191" x="438" y="5"/><text fill="#000000" font-family="sans-serif" font-size="14" lengthAdjust="spacing" textLength="177" x="445" y="24.9951">BinarySearchIndexReader</text><rect fill="#E2E2F0" height="30.2969" rx="2.5" ry="2.5" style="stroke:#181818;stroke-width:0.5;" width="191" x="438" y="515.1563"/><text fill="#000000" font-family="sans-serif" font-size="14" lengthAdjust="spacing" textLength="177" x="445" y="535.1514">BinarySearchIndexReader</text><rect fill="#E2E2F0" height="30.2969" rx="2.5" ry="2.5" style="stroke:#181818;stroke-width:0.5;" width="239" x="639" y="5"/><text fill="#000000" font-family="sans-serif" font-size="14" lengthAdjust="spacing" textLength="225" x="646" y="24.9951">BlockBasedTable::RetrieveBlock</text><rect fill="#E2E2F0" height="30.2969" rx="2.5" ry="2.5" style="stroke:#181818;stroke-width:0.5;" width="239" x="639" y="515.1563"/><text fill="#000000" font-family="sans-serif" font-size="14" lengthAdjust="spacing" textLength="225" x="646" y="535.1514">BlockBasedTable::RetrieveBlock</text><rect fill="#ADD1B2" height="430.7266" style="stroke:#181818;stroke-width:1.0;" width="10" x="123" y="67.4297"/><rect fill="#E3664A" height="351.4609" style="stroke:#181818;stroke-width:1.0;" width="10" x="128" y="146.6953"/><rect fill="#A9DCDF" height="121.5313" style="stroke:#181818;stroke-width:1.0;" width="10" x="133" y="188.8281"/><rect fill="#A9DCDF" height="121.5313" style="stroke:#181818;stroke-width:1.0;" width="10" x="133" y="347.4922"/><rect fill="#FFFFFF" height="58.2656" style="stroke:#181818;stroke-width:1.0;" width="10" x="344" y="252.0938"/><rect fill="#FFFFFF" height="58.2656" style="stroke:#181818;stroke-width:1.0;" width="10" x="528.5" y="410.7578"/><polygon fill="#181818" points="111,63.4297,121,67.4297,111,71.4297,115,67.4297" style="stroke:#181818;stroke-width:1.0;"/><line style="stroke:#181818;stroke-width:1.0;" x1="28" x2="117" y1="67.4297" y2="67.4297"/><text fill="#000000" font-family="sans-serif" font-size="13" font-weight="bold" lengthAdjust="spacing" textLength="9" x="35" y="62.3638">1</text><text fill="#000000" font-family="sans-serif" font-size="13" lengthAdjust="spacing" textLength="34" x="48" y="62.3638">Open</text><line style="stroke:#181818;stroke-width:1.0;" x1="133" x2="175" y1="96.5625" y2="96.5625"/><line style="stroke:#181818;stroke-width:1.0;" x1="175" x2="175" y1="96.5625" y2="109.5625"/><line style="stroke:#181818;stroke-width:1.0;" x1="134" x2="175" y1="109.5625" y2="109.5625"/><polygon fill="#181818" points="144,105.5625,134,109.5625,144,113.5625,140,109.5625" style="stroke:#181818;stroke-width:1.0;"/><text fill="#000000" font-family="sans-serif" font-size="13" font-weight="bold" lengthAdjust="spacing" textLength="9" x="140" y="91.4966">2</text><text fill="#000000" font-family="sans-serif" font-size="13" lengthAdjust="spacing" textLength="74" x="153" y="91.4966">PrefetchTail</text><line style="stroke:#181818;stroke-width:1.0;" x1="133" x2="180" y1="133.6953" y2="133.6953"/><line style="stroke:#181818;stroke-width:1.0;" x1="180" x2="180" y1="133.6953" y2="146.6953"/><line style="stroke:#181818;stroke-width:1.0;" x1="139" x2="180" y1="146.6953" y2="146.6953"/><polygon fill="#181818" points="149,142.6953,139,146.6953,149,150.6953,145,146.6953" style="stroke:#181818;stroke-width:1.0;"/><text fill="#000000" font-family="sans-serif" font-size="13" font-weight="bold" lengthAdjust="spacing" textLength="9" x="145" y="128.6294">3</text><text fill="#000000" font-family="sans-serif" font-size="13" lengthAdjust="spacing" textLength="184" x="158" y="128.6294">PrefetchIndexAndFilterBlocks</text><line style="stroke:#181818;stroke-width:1.0;" x1="138" x2="185" y1="175.8281" y2="175.8281"/><line style="stroke:#181818;stroke-width:1.0;" x1="185" x2="185" y1="175.8281" y2="188.8281"/><line style="stroke:#181818;stroke-width:1.0;" x1="144" x2="185" y1="188.8281" y2="188.8281"/><polygon fill="#181818" points="154,184.8281,144,188.8281,154,192.8281,150,188.8281" style="stroke:#181818;stroke-width:1.0;"/><text fill="#000000" font-family="sans-serif" font-size="13" font-weight="bold" lengthAdjust="spacing" textLength="9" x="150" y="170.7622">4</text><text fill="#000000" font-family="sans-serif" font-size="13" lengthAdjust="spacing" textLength="153" x="163" y="170.7622">CreateFilterBlockReader</text><polygon fill="#181818" points="337,218.9609,347,222.9609,337,226.9609,341,222.9609" style="stroke:#181818;stroke-width:1.0;"/><line style="stroke:#181818;stroke-width:1.0;" x1="143" x2="343" y1="222.9609" y2="222.9609"/><text fill="#000000" font-family="sans-serif" font-size="13" font-weight="bold" lengthAdjust="spacing" textLength="9" x="150" y="217.895">5</text><text fill="#000000" font-family="sans-serif" font-size="13" lengthAdjust="spacing" textLength="43" x="163" y="217.895">Create</text><polygon fill="#181818" points="332,248.0938,342,252.0938,332,256.0938,336,252.0938" style="stroke:#181818;stroke-width:1.0;"/><line style="stroke:#181818;stroke-width:1.0;" x1="143" x2="338" y1="252.0938" y2="252.0938"/><text fill="#000000" font-family="sans-serif" font-size="13" font-weight="bold" lengthAdjust="spacing" textLength="9" x="150" y="247.0278">6</text><text fill="#000000" font-family="sans-serif" font-size="13" lengthAdjust="spacing" textLength="97" x="163" y="247.0278">ReadFilterBlock</text><polygon fill="#181818" points="746.5,277.2266,756.5,281.2266,746.5,285.2266,750.5,281.2266" style="stroke:#181818;stroke-width:1.0;"/><line style="stroke:#181818;stroke-width:1.0;" x1="354" x2="752.5" y1="281.2266" y2="281.2266"/><text fill="#000000" font-family="sans-serif" font-size="13" font-weight="bold" lengthAdjust="spacing" textLength="9" x="361" y="276.1606">7</text><text fill="#000000" font-family="sans-serif" font-size="13" lengthAdjust="spacing" textLength="4" x="374" y="276.1606"> </text><polygon fill="#181818" points="149,306.3594,139,310.3594,149,314.3594,145,310.3594" style="stroke:#181818;stroke-width:1.0;"/><line style="stroke:#181818;stroke-width:1.0;" x1="143" x2="348" y1="310.3594" y2="310.3594"/><text fill="#000000" font-family="sans-serif" font-size="13" font-weight="bold" lengthAdjust="spacing" textLength="9" x="155" y="305.2935">8</text><text fill="#000000" font-family="sans-serif" font-size="13" lengthAdjust="spacing" textLength="4" x="168" y="305.2935"> </text><line style="stroke:#181818;stroke-width:1.0;" x1="138" x2="185" y1="334.4922" y2="334.4922"/><line style="stroke:#181818;stroke-width:1.0;" x1="185" x2="185" y1="334.4922" y2="347.4922"/><line style="stroke:#181818;stroke-width:1.0;" x1="144" x2="185" y1="347.4922" y2="347.4922"/><polygon fill="#181818" points="154,343.4922,144,347.4922,154,351.4922,150,347.4922" style="stroke:#181818;stroke-width:1.0;"/><text fill="#000000" font-family="sans-serif" font-size="13" font-weight="bold" lengthAdjust="spacing" textLength="9" x="150" y="329.4263">9</text><text fill="#000000" font-family="sans-serif" font-size="13" lengthAdjust="spacing" textLength="122" x="163" y="329.4263">CreateIndexReader</text><polygon fill="#181818" points="521.5,377.625,531.5,381.625,521.5,385.625,525.5,381.625" style="stroke:#181818;stroke-width:1.0;"/><line style="stroke:#181818;stroke-width:1.0;" x1="143" x2="527.5" y1="381.625" y2="381.625"/><text fill="#000000" font-family="sans-serif" font-size="13" font-weight="bold" lengthAdjust="spacing" textLength="18" x="150" y="376.5591">10</text><text fill="#000000" font-family="sans-serif" font-size="13" lengthAdjust="spacing" textLength="43" x="172" y="376.5591">Create</text><polygon fill="#181818" points="516.5,406.7578,526.5,410.7578,516.5,414.7578,520.5,410.7578" style="stroke:#181818;stroke-width:1.0;"/><line style="stroke:#181818;stroke-width:1.0;" x1="143" x2="522.5" y1="410.7578" y2="410.7578"/><text fill="#000000" font-family="sans-serif" font-size="13" font-weight="bold" lengthAdjust="spacing" textLength="18" x="150" y="405.6919">11</text><text fill="#000000" font-family="sans-serif" font-size="13" lengthAdjust="spacing" textLength="100" x="172" y="405.6919">ReadIndexBlock</text><polygon fill="#181818" points="746.5,435.8906,756.5,439.8906,746.5,443.8906,750.5,439.8906" style="stroke:#181818;stroke-width:1.0;"/><line style="stroke:#181818;stroke-width:1.0;" x1="538.5" x2="752.5" y1="439.8906" y2="439.8906"/><text fill="#000000" font-family="sans-serif" font-size="13" font-weight="bold" lengthAdjust="spacing" textLength="18" x="545.5" y="434.8247">12</text><text fill="#000000" font-family="sans-serif" font-size="13" lengthAdjust="spacing" textLength="4" x="567.5" y="434.8247"> </text><polygon fill="#181818" points="149,465.0234,139,469.0234,149,473.0234,145,469.0234" style="stroke:#181818;stroke-width:1.0;"/><line style="stroke:#181818;stroke-width:1.0;" x1="143" x2="532.5" y1="469.0234" y2="469.0234"/><text fill="#000000" font-family="sans-serif" font-size="13" font-weight="bold" lengthAdjust="spacing" textLength="18" x="155" y="463.9575">13</text><text fill="#000000" font-family="sans-serif" font-size="13" lengthAdjust="spacing" textLength="4" x="177" y="463.9575"> </text><polygon fill="#181818" points="39,494.1563,29,498.1563,39,502.1563,35,498.1563" style="stroke:#181818;stroke-width:1.0;"/><line style="stroke:#181818;stroke-width:1.0;" x1="33" x2="127" y1="498.1563" y2="498.1563"/><text fill="#000000" font-family="sans-serif" font-size="13" font-weight="bold" lengthAdjust="spacing" textLength="18" x="45" y="493.0903">14</text><text fill="#000000" font-family="sans-serif" font-size="13" lengthAdjust="spacing" textLength="4" x="67" y="493.0903"> </text></g></svg>